<svg width="370" height="198" viewBox="0 0 370 198" fill="none" xmlns="http://www.w3.org/2000/svg">
<g opacity="0.15">
<path d="M297.293 99.316L355.091 24.4221H369.745L365.403 0L319.544 23.879H341.252L283.724 99.316L307.604 131.064H321.172L297.293 99.316Z" fill="#5CB09F"/>
<path d="M263.826 98.4642L206.026 173.358H191.373L195.714 197.78L241.573 173.901H219.866L277.394 98.4642L253.514 66.7148H239.946L263.826 98.4642Z" fill="#5CB09F"/>
<path d="M280.921 120.987L289.06 131.064H302.358L280.921 102.807L232.076 165.141" fill="#5CB09F"/>
<path d="M280.198 76.7936L272.056 66.7145H258.76L280.198 94.9745L329.041 32.6377" fill="#5CB09F"/>
<path d="M14.5773 66.6777H42.7194L44.1521 110.365L63.6262 66.6777L91.6979 66.5879L78.0538 131.181H61.1675L73.4828 77.0417L46.6954 131.181H30.6134L27.478 76.5943L16.3186 131.181H0.862793L14.5773 66.6777Z" fill="#5CB09F"/>
<path d="M111.526 66.6777H141.366C152.98 66.6777 157.206 67.3922 160.212 71.3237C161.759 73.2898 163.501 76.8629 162.02 83.8311C160.519 90.8891 157.014 93.9273 153.577 95.8029C148.917 98.3937 144.891 98.8403 143.047 99.1089L142.971 99.4658C155.403 99.8226 154.94 105.361 154.26 115.279C153.955 119.657 153.367 126.625 153.918 131.181H134.531C134.294 127.251 134.893 122.337 135.482 116.619C136.331 108.847 136.67 105.987 128.63 105.987H121.125L115.769 131.181H97.811L111.526 66.6777ZM123.595 94.3732H130.296C134.226 94.3732 136.192 94.3732 137.825 93.8368C142.021 92.5859 143.681 88.5661 144.117 86.511C145.808 78.5597 138.84 78.5597 133.657 78.5597H126.957L123.595 94.3732Z" fill="#5CB09F"/>
<path d="M183.775 66.8564H232.199L229.577 79.1851H198.843L195.993 92.5865H224.942L222.319 104.915H193.373L190.448 118.673H221.896L219.236 131.18H170.099L183.775 66.8564Z" fill="#5CB09F"/>
</g>
</svg>
