<svg width="145" height="132" viewBox="0 0 145 132" fill="none" xmlns="http://www.w3.org/2000/svg">
<path d="M101.979 80.9785H105.985C106.778 80.9785 107.368 81.0127 107.756 81.0811C108.148 81.1449 108.496 81.2816 108.802 81.4912C109.112 81.7008 109.369 81.9811 109.574 82.332C109.779 82.6784 109.882 83.068 109.882 83.501C109.882 83.9704 109.754 84.401 109.499 84.793C109.248 85.1849 108.907 85.4788 108.474 85.6748C109.084 85.8525 109.554 86.1556 109.882 86.584C110.21 87.0124 110.374 87.516 110.374 88.0947C110.374 88.5505 110.267 88.9948 110.053 89.4277C109.843 89.8561 109.554 90.2002 109.185 90.46C108.82 90.7152 108.369 90.8724 107.831 90.9316C107.494 90.9681 106.68 90.9909 105.391 91H101.979V80.9785ZM104.003 82.6465V84.9639H105.329C106.118 84.9639 106.607 84.9525 106.799 84.9297C107.145 84.8887 107.416 84.7702 107.612 84.5742C107.813 84.3737 107.913 84.1117 107.913 83.7881C107.913 83.4782 107.826 83.2275 107.653 83.0361C107.485 82.8402 107.232 82.7217 106.895 82.6807C106.694 82.6579 106.118 82.6465 105.165 82.6465H104.003ZM104.003 86.6318V89.3115H105.876C106.605 89.3115 107.068 89.291 107.264 89.25C107.564 89.1953 107.808 89.0632 107.995 88.8535C108.187 88.6393 108.282 88.3545 108.282 87.999C108.282 87.6982 108.209 87.443 108.063 87.2334C107.918 87.0238 107.706 86.8711 107.428 86.7754C107.154 86.6797 106.557 86.6318 105.637 86.6318H104.003ZM112.09 91V80.9785H119.521V82.6738H114.113V84.8955H119.145V86.584H114.113V89.3115H119.712V91H112.09ZM123.684 91V82.6738H120.71V80.9785H128.674V82.6738H125.707V91H123.684ZM137.984 91H135.783L134.908 88.7236H130.902L130.075 91H127.929L131.832 80.9785H133.972L137.984 91ZM134.259 87.0352L132.878 83.3164L131.524 87.0352H134.259Z" fill="white"/>
<path d="M106.136 66.0957L126.702 39.4462H131.916L130.371 30.7561L114.054 39.2529H121.778L101.308 66.0957L109.805 77.3925H114.633L106.136 66.0957Z" fill="white"/>
<path d="M94.2275 65.7925L73.6603 92.442H68.4463L69.9912 101.132L86.3091 92.6349H78.5852L99.0552 65.7925L90.5581 54.4951H85.7301L94.2275 65.7925Z" fill="white"/>
<path d="M100.31 73.8067L103.206 77.3926H107.938L100.31 67.3376L82.9299 89.5181" fill="white"/>
<path d="M100.053 58.0813L97.1557 54.4949H92.4246L100.053 64.5507L117.433 42.3694" fill="white"/>
<path d="M5.53727 54.4819H15.551L16.0608 70.0273L22.9903 54.4819L32.979 54.45L28.1241 77.4341H22.1154L26.4975 58.1697L16.9658 77.4341H11.2434L10.1277 58.0105L6.15687 77.4341H0.657227L5.53727 54.4819Z" fill="white"/>
<path d="M40.0344 54.4822H50.6522C54.7848 54.4822 56.2886 54.7364 57.358 56.1353C57.9087 56.8349 58.5286 58.1064 58.0014 60.5859C57.4673 63.0973 56.2202 64.1784 54.9973 64.8458C53.3392 65.7676 51.9064 65.9266 51.2504 66.0221L51.2232 66.1491C55.6468 66.2761 55.4821 68.2469 55.2402 71.7758C55.1317 73.3336 54.9224 75.8131 55.1185 77.4343H48.2199C48.1357 76.0359 48.3488 74.2875 48.5587 72.2528C48.8607 69.4871 48.9813 68.4697 46.1203 68.4697H43.45L41.5439 77.4343H35.1541L40.0344 54.4822ZM44.3286 64.337H46.713C48.1117 64.337 48.811 64.337 49.3921 64.1462C50.8853 63.7011 51.4759 62.2707 51.6311 61.5394C52.2327 58.7101 49.7533 58.7101 47.9092 58.7101H45.525L44.3286 64.337Z" fill="white"/>
<path d="M65.743 54.5457H82.9735L82.0406 58.9325H71.1046L70.0906 63.7012H80.3913L79.4581 68.0881H69.1581L68.1174 72.9837H79.3076L78.3612 77.4339H60.8767L65.743 54.5457Z" fill="white"/>
</svg>
