<svg width="411" height="346" viewBox="0 0 411 346" fill="none" xmlns="http://www.w3.org/2000/svg">
<circle cx="210" cy="62" r="284" fill="url(#paint0_linear)"/>
<g clip-path="url(#clip0)">
<path d="M272.095 225.606L275.595 199.356C275.708 198.565 275.603 197.759 275.291 197.024C274.978 196.289 274.47 195.654 273.823 195.187C273.175 194.72 272.411 194.439 271.615 194.375C270.819 194.311 270.021 194.466 269.307 194.823L244.334 213.84C243.865 214.223 243.321 214.505 242.737 214.667C242.152 214.83 241.541 214.869 240.941 214.782C240.341 214.695 239.765 214.485 239.251 214.164C238.737 213.843 238.295 213.419 237.953 212.918L213.307 176.868C212.896 176.4 212.39 176.024 211.823 175.767C211.256 175.51 210.64 175.377 210.017 175.377C209.394 175.377 208.778 175.51 208.211 175.767C207.643 176.024 207.138 176.4 206.727 176.868L182.064 212.918C181.722 213.419 181.28 213.843 180.765 214.164C180.251 214.485 179.675 214.695 179.075 214.782C178.475 214.869 177.864 214.83 177.28 214.667C176.695 214.505 176.151 214.223 175.682 213.84L150.709 194.823C149.995 194.466 149.197 194.311 148.401 194.375C147.605 194.439 146.842 194.72 146.194 195.187C145.546 195.654 145.038 196.289 144.726 197.024C144.413 197.759 144.308 198.565 144.421 199.356L152.121 257.409" stroke="white" stroke-width="8.75" stroke-linecap="round" stroke-linejoin="round"/>
<path d="M179.375 256.23H157.5C154.019 256.23 150.681 257.613 148.219 260.075C145.758 262.536 144.375 265.875 144.375 269.355V269.355C144.375 272.836 145.758 276.175 148.219 278.636C150.681 281.098 154.019 282.48 157.5 282.48H192.5" stroke="white" stroke-width="8.75" stroke-linecap="round" stroke-linejoin="round"/>
<path d="M236.251 304.356L274.343 263.166C275.058 262.451 275.503 261.509 275.603 260.502C275.703 259.495 275.452 258.485 274.891 257.642L259.427 236.333C259.027 235.734 258.486 235.242 257.851 234.903C257.216 234.563 256.507 234.385 255.787 234.385H216.703C215.983 234.385 215.274 234.563 214.639 234.903C214.004 235.242 213.463 235.734 213.063 236.333L197.611 257.619C197.05 258.461 196.798 259.472 196.898 260.479C196.998 261.486 197.444 262.427 198.159 263.143L236.251 304.356Z" stroke="white" stroke-width="8.75" stroke-linecap="round" stroke-linejoin="round"/>
<path d="M196.91 260.605H275.59" stroke="white" stroke-width="8.75" stroke-linecap="round" stroke-linejoin="round"/>
<path d="M236.25 234.355V304.355" stroke="white" stroke-width="8.75" stroke-linecap="round" stroke-linejoin="round"/>
</g>
<circle cx="373.5" cy="66.5" r="4" stroke="#00FFC2"/>
<rect x="82" y="52" width="2" height="12" rx="1" fill="#5F02BB"/>
<rect x="100.844" y="61" width="2" height="12" rx="1" transform="rotate(49.264 100.844 61)" fill="#5F02BB"/>
<rect width="2" height="12" rx="1" transform="matrix(-0.652575 0.757724 0.757724 0.652575 65.3047 61)" fill="#5F02BB"/>
<rect x="73.8047" y="98.6885" width="2" height="12" rx="1" transform="rotate(-154.437 73.8047 98.6885)" fill="#5F02BB"/>
<rect width="2" height="12" rx="1" transform="matrix(0.902112 -0.431501 -0.431501 -0.902112 92.1777 98.6885)" fill="#5F02BB"/>
<rect x="60.5664" y="83.3184" width="2" height="12" rx="1" transform="rotate(-106.459 60.5664 83.3184)" fill="#5F02BB"/>
<rect width="2" height="12" rx="1" transform="matrix(0.283332 -0.959022 -0.959022 -0.283332 106.508 83.3184)" fill="#5F02BB"/>
<rect x="367" y="146" width="2" height="12" rx="1" fill="#5F02BB"/>
<rect x="385.844" y="155" width="2" height="12" rx="1" transform="rotate(49.264 385.844 155)" fill="#5F02BB"/>
<rect width="2" height="12" rx="1" transform="matrix(-0.652575 0.757724 0.757724 0.652575 350.305 155)" fill="#5F02BB"/>
<rect x="358.805" y="192.688" width="2" height="12" rx="1" transform="rotate(-154.437 358.805 192.688)" fill="#5F02BB"/>
<rect width="2" height="12" rx="1" transform="matrix(0.902112 -0.431501 -0.431501 -0.902112 377.178 192.688)" fill="#5F02BB"/>
<rect x="345.566" y="177.318" width="2" height="12" rx="1" transform="rotate(-106.459 345.566 177.318)" fill="#5F02BB"/>
<rect width="2" height="12" rx="1" transform="matrix(0.283332 -0.959022 -0.959022 -0.283332 391.508 177.318)" fill="#5F02BB"/>
<rect x="268" y="32" width="2" height="12" rx="1" fill="#5F02BB"/>
<rect x="286.844" y="41" width="2" height="12" rx="1" transform="rotate(49.264 286.844 41)" fill="#5F02BB"/>
<rect width="2" height="12" rx="1" transform="matrix(-0.652575 0.757724 0.757724 0.652575 251.305 41)" fill="#5F02BB"/>
<rect x="259.805" y="78.6885" width="2" height="12" rx="1" transform="rotate(-154.437 259.805 78.6885)" fill="#5F02BB"/>
<rect width="2" height="12" rx="1" transform="matrix(0.902112 -0.431501 -0.431501 -0.902112 278.178 78.6885)" fill="#5F02BB"/>
<rect x="246.566" y="63.3184" width="2" height="12" rx="1" transform="rotate(-106.459 246.566 63.3184)" fill="#5F02BB"/>
<rect width="2" height="12" rx="1" transform="matrix(0.283332 -0.959022 -0.959022 -0.283332 292.508 63.3184)" fill="#5F02BB"/>
<rect x="28.2793" y="101" width="8" height="8" rx="1" transform="rotate(51.7157 28.2793 101)" fill="#FFE600"/>
<rect x="150.279" y="24" width="8" height="8" rx="1" transform="rotate(51.7157 150.279 24)" fill="#FFE600"/>
<rect x="73.2793" y="172" width="8" height="8" rx="1" transform="rotate(51.7157 73.2793 172)" fill="#FFE600"/>
<rect x="180.279" y="95" width="8" height="8" rx="1" transform="rotate(51.7157 180.279 95)" fill="#FFE600"/>
<rect x="370.279" y="107" width="8" height="8" rx="1" transform="rotate(51.7157 370.279 107)" fill="#FFE600"/>
<rect x="362.279" y="17" width="8" height="8" rx="1" transform="rotate(51.7157 362.279 17)" fill="#FFE600"/>
<rect x="308.279" y="135" width="8" height="8" rx="1" transform="rotate(51.7157 308.279 135)" fill="#FFE500"/>
<circle cx="195.5" cy="64.5" r="4" stroke="#00FFC2"/>
<circle cx="101.5" cy="21.5" r="4" stroke="#00FFC2"/>
<circle cx="297.5" cy="99.5" r="4" stroke="#00FFC2"/>
<circle cx="172.5" cy="141.5" r="4" stroke="#00FFC2"/>
<circle cx="83.5" cy="138.5" r="4" stroke="#00FFC2"/>
<path opacity="0.8" d="M37.134 37.5C37.5189 36.8333 38.4811 36.8333 38.866 37.5L41.4641 42C41.849 42.6667 41.3679 43.5 40.5981 43.5H35.4019C34.6321 43.5 34.151 42.6667 34.5359 42L37.134 37.5Z" fill="#FF0000"/>
<path opacity="0.8" d="M214.134 15.5C214.519 14.8333 215.481 14.8333 215.866 15.5L218.464 20C218.849 20.6667 218.368 21.5 217.598 21.5H212.402C211.632 21.5 211.151 20.6667 211.536 20L214.134 15.5Z" fill="#FF0000"/>
<path opacity="0.8" d="M248.134 100.5C248.519 99.8333 249.481 99.8333 249.866 100.5L252.464 105C252.849 105.667 252.368 106.5 251.598 106.5H246.402C245.632 106.5 245.151 105.667 245.536 105L248.134 100.5Z" fill="#FF0000"/>
<path opacity="0.8" d="M317.134 60.5C317.519 59.8333 318.481 59.8333 318.866 60.5L321.464 65C321.849 65.6667 321.368 66.5 320.598 66.5H315.402C314.632 66.5 314.151 65.6667 314.536 65L317.134 60.5Z" fill="#FF0000"/>
<defs>
<linearGradient id="paint0_linear" x1="482.233" y1="-113.962" x2="-39.7703" y2="351.348" gradientUnits="userSpaceOnUse">
<stop stop-color="#02FFCC"/>
<stop offset="1" stop-color="#5CB09F"/>
</linearGradient>
<clipPath id="clip0">
<rect width="140" height="140" fill="white" transform="translate(140 171)"/>
</clipPath>
</defs>
</svg>
