<svg width="24" height="24" viewBox="0 0 24 24" fill="none" xmlns="http://www.w3.org/2000/svg">
<path d="M23.25 3.75H0.75V23.25H23.25V3.75Z" stroke="#464646" stroke-width="1.5" stroke-linecap="round" stroke-linejoin="round"/>
<path d="M23.25 9.75H0.75" stroke="#464646" stroke-width="1.5" stroke-linecap="round" stroke-linejoin="round"/>
<path d="M17.25 6V0.75" stroke="#464646" stroke-width="1.5" stroke-linecap="round" stroke-linejoin="round"/>
<path d="M6.75 6V0.75" stroke="#464646" stroke-width="1.5" stroke-linecap="round" stroke-linejoin="round"/>
<path d="M18.375 13.5C18.4492 13.5 18.5217 13.522 18.5833 13.5632C18.645 13.6044 18.6931 13.663 18.7215 13.7315C18.7498 13.8 18.7573 13.8754 18.7428 13.9482C18.7283 14.0209 18.6926 14.0877 18.6402 14.1402C18.5877 14.1926 18.5209 14.2283 18.4482 14.2428C18.3754 14.2573 18.3 14.2498 18.2315 14.2215C18.163 14.1931 18.1044 14.145 18.0632 14.0833C18.022 14.0217 18 13.9492 18 13.875C18 13.7755 18.0395 13.6802 18.1098 13.6098C18.1802 13.5395 18.2755 13.5 18.375 13.5Z" stroke="#464646" stroke-width="1.5" stroke-linecap="round" stroke-linejoin="round"/>
<path d="M18.375 18.75C18.4492 18.75 18.5217 18.772 18.5833 18.8132C18.645 18.8544 18.6931 18.913 18.7215 18.9815C18.7498 19.05 18.7573 19.1254 18.7428 19.1982C18.7283 19.2709 18.6926 19.3377 18.6402 19.3902C18.5877 19.4426 18.5209 19.4783 18.4482 19.4928C18.3754 19.5073 18.3 19.4998 18.2315 19.4715C18.163 19.4431 18.1044 19.395 18.0632 19.3333C18.022 19.2717 18 19.1992 18 19.125C18 19.0255 18.0395 18.9302 18.1098 18.8598C18.1802 18.7895 18.2755 18.75 18.375 18.75Z" stroke="#464646" stroke-width="1.5" stroke-linecap="round" stroke-linejoin="round"/>
<path d="M12 13.5C12.0742 13.5 12.1467 13.522 12.2083 13.5632C12.27 13.6044 12.3181 13.663 12.3465 13.7315C12.3748 13.8 12.3823 13.8754 12.3678 13.9482C12.3533 14.0209 12.3176 14.0877 12.2652 14.1402C12.2127 14.1926 12.1459 14.2283 12.0732 14.2428C12.0004 14.2573 11.925 14.2498 11.8565 14.2215C11.788 14.1931 11.7294 14.145 11.6882 14.0833C11.647 14.0217 11.625 13.9492 11.625 13.875C11.625 13.7755 11.6645 13.6802 11.7348 13.6098C11.8052 13.5395 11.9005 13.5 12 13.5Z" stroke="#464646" stroke-width="1.5" stroke-linecap="round" stroke-linejoin="round"/>
<path d="M12 18.75C12.0742 18.75 12.1467 18.772 12.2083 18.8132C12.27 18.8544 12.3181 18.913 12.3465 18.9815C12.3748 19.05 12.3823 19.1254 12.3678 19.1982C12.3533 19.2709 12.3176 19.3377 12.2652 19.3902C12.2127 19.4426 12.1459 19.4783 12.0732 19.4928C12.0004 19.5073 11.925 19.4998 11.8565 19.4715C11.788 19.4431 11.7294 19.395 11.6882 19.3333C11.647 19.2717 11.625 19.1992 11.625 19.125C11.625 19.0255 11.6645 18.9302 11.7348 18.8598C11.8052 18.7895 11.9005 18.75 12 18.75Z" stroke="#464646" stroke-width="1.5" stroke-linecap="round" stroke-linejoin="round"/>
<path d="M5.625 13.5C5.69917 13.5 5.77167 13.522 5.83334 13.5632C5.89501 13.6044 5.94307 13.663 5.97145 13.7315C5.99984 13.8 6.00726 13.8754 5.99279 13.9482C5.97832 14.0209 5.94261 14.0877 5.89017 14.1402C5.83772 14.1926 5.7709 14.2283 5.69816 14.2428C5.62542 14.2573 5.55002 14.2498 5.48149 14.2215C5.41297 14.1931 5.3544 14.145 5.3132 14.0833C5.27199 14.0217 5.25 13.9492 5.25 13.875C5.25 13.7755 5.28951 13.6802 5.35983 13.6098C5.43016 13.5395 5.52554 13.5 5.625 13.5Z" stroke="#464646" stroke-width="1.5" stroke-linecap="round" stroke-linejoin="round"/>
<path d="M5.625 18.75C5.69917 18.75 5.77167 18.772 5.83334 18.8132C5.89501 18.8544 5.94307 18.913 5.97145 18.9815C5.99984 19.05 6.00726 19.1254 5.99279 19.1982C5.97832 19.2709 5.94261 19.3377 5.89017 19.3902C5.83772 19.4426 5.7709 19.4783 5.69816 19.4928C5.62542 19.5073 5.55002 19.4998 5.48149 19.4715C5.41297 19.4431 5.3544 19.395 5.3132 19.3333C5.27199 19.2717 5.25 19.1992 5.25 19.125C5.25 19.0255 5.28951 18.9302 5.35983 18.8598C5.43016 18.7895 5.52554 18.75 5.625 18.75Z" stroke="#464646" stroke-width="1.5" stroke-linecap="round" stroke-linejoin="round"/>
</svg>
