<svg width="20" height="20" viewBox="0 0 20 20" fill="none" xmlns="http://www.w3.org/2000/svg">
<path d="M11.3753 6.22474C11.488 6.3374 11.6408 6.40069 11.8001 6.40069C11.9594 6.40069 12.1122 6.3374 12.2249 6.22474C12.3376 6.11207 12.4009 5.95927 12.4009 5.79994C12.4009 5.6406 12.3376 5.4878 12.2249 5.37514L10.8485 3.99994H13.0001C13.7958 3.99994 14.5588 4.31601 15.1214 4.87862C15.684 5.44122 16.0001 6.20429 16.0001 6.99994V12.3999C15.0982 12.4013 14.2296 12.7411 13.5663 13.3522C12.903 13.9633 12.4932 14.8011 12.418 15.6998C12.3428 16.5986 12.6077 17.4929 13.1603 18.2057C13.7129 18.9185 14.5129 19.3979 15.4021 19.549C16.2913 19.7002 17.2048 19.5121 17.9619 19.0219C18.719 18.5318 19.2645 17.7753 19.4906 16.9022C19.7166 16.0291 19.6067 15.1029 19.1825 14.3069C18.7584 13.511 18.0509 12.9032 17.2001 12.6039V6.99994C17.2001 5.88603 16.7576 4.81774 15.97 4.03009C15.1823 3.24243 14.114 2.79994 13.0001 2.79994H10.8485L12.2249 1.42474C12.2807 1.36895 12.3249 1.30272 12.3551 1.22984C12.3853 1.15695 12.4009 1.07883 12.4009 0.999936C12.4009 0.921044 12.3853 0.842923 12.3551 0.770036C12.3249 0.697149 12.2807 0.630922 12.2249 0.575136C12.1691 0.519351 12.1029 0.475099 12.03 0.444908C11.9571 0.414717 11.879 0.399178 11.8001 0.399178C11.7212 0.399178 11.6431 0.414717 11.5702 0.444908C11.4973 0.475099 11.4311 0.519351 11.3753 0.575136L8.97531 2.97514C8.91943 3.03087 8.8751 3.09708 8.84485 3.16998C8.8146 3.24287 8.79904 3.32102 8.79904 3.39994C8.79904 3.47886 8.8146 3.557 8.84485 3.6299C8.8751 3.70279 8.91943 3.769 8.97531 3.82474L11.3753 6.22474ZM18.4001 15.9999C18.4001 16.6365 18.1472 17.2469 17.6972 17.697C17.2471 18.1471 16.6366 18.3999 16.0001 18.3999C15.3636 18.3999 14.7531 18.1471 14.3031 17.697C13.853 17.2469 13.6001 16.6365 13.6001 15.9999C13.6001 15.3634 13.853 14.753 14.3031 14.3029C14.7531 13.8528 15.3636 13.5999 16.0001 13.5999C16.6366 13.5999 17.2471 13.8528 17.6972 14.3029C18.1472 14.753 18.4001 15.3634 18.4001 15.9999ZM7.60011 3.99994C7.60011 4.95472 7.22082 5.87039 6.54569 6.54552C5.87056 7.22065 4.95489 7.59994 4.00011 7.59994V12.9999C4.00011 13.7956 4.31618 14.5586 4.87879 15.1213C5.4414 15.6839 6.20446 15.9999 7.00011 15.9999H9.15171L7.77531 14.6247C7.71952 14.5689 7.67527 14.5027 7.64508 14.4298C7.61489 14.3569 7.59935 14.2788 7.59935 14.1999C7.59935 14.121 7.61489 14.0429 7.64508 13.97C7.67527 13.8971 7.71952 13.8309 7.77531 13.7751C7.83109 13.7193 7.89732 13.6751 7.97021 13.6449C8.04309 13.6147 8.12121 13.5992 8.20011 13.5992C8.279 13.5992 8.35712 13.6147 8.43001 13.6449C8.50289 13.6751 8.56912 13.7193 8.62491 13.7751L11.0249 16.1751C11.0808 16.2309 11.1251 16.2971 11.1554 16.37C11.1856 16.4429 11.2012 16.521 11.2012 16.5999C11.2012 16.6789 11.1856 16.757 11.1554 16.8299C11.1251 16.9028 11.0808 16.969 11.0249 17.0247L8.62491 19.4247C8.51224 19.5374 8.35944 19.6007 8.20011 19.6007C8.04078 19.6007 7.88797 19.5374 7.77531 19.4247C7.66264 19.3121 7.59935 19.1593 7.59935 18.9999C7.59935 18.8406 7.66264 18.6878 7.77531 18.5751L9.15171 17.1999H7.00011C5.8862 17.1999 4.81791 16.7574 4.03026 15.9698C3.24261 15.1821 2.80011 14.1138 2.80011 12.9999V7.39594C2.17749 7.17614 1.62728 6.78939 1.20963 6.27798C0.791991 5.76656 0.522989 5.15017 0.432036 4.49619C0.341084 3.8422 0.431682 3.1758 0.693926 2.56983C0.956171 1.96386 1.37997 1.44166 1.91898 1.0603C2.458 0.678951 3.09149 0.453129 3.75019 0.407526C4.40889 0.361924 5.06745 0.498296 5.65388 0.801735C6.2403 1.10517 6.73202 1.564 7.07526 2.12805C7.41851 2.6921 7.60007 3.33966 7.60011 3.99994ZM6.40011 3.99994C6.40011 3.36342 6.14725 2.75297 5.69716 2.30288C5.24708 1.85279 4.63663 1.59994 4.00011 1.59994C3.36359 1.59994 2.75314 1.85279 2.30305 2.30288C1.85296 2.75297 1.60011 3.36342 1.60011 3.99994C1.60011 4.63646 1.85296 5.24691 2.30305 5.69699C2.75314 6.14708 3.36359 6.39994 4.00011 6.39994C4.63663 6.39994 5.24708 6.14708 5.69716 5.69699C6.14725 5.24691 6.40011 4.63646 6.40011 3.99994Z" fill="#5CB09F"/>
</svg>
