<svg width="23" height="26" viewBox="0 0 23 26" fill="none" xmlns="http://www.w3.org/2000/svg">
<path d="M22.2012 4.14502H0.999881V24.5901H22.2012V4.14502Z" stroke="#5CB09F" stroke-width="1.5" stroke-linecap="round" stroke-linejoin="round"/>
<path d="M22.2012 10.4365H0.999882" stroke="#5CB09F" stroke-width="1.5" stroke-linecap="round" stroke-linejoin="round"/>
<path d="M16.5461 6.50443V1" stroke="#5CB09F" stroke-width="1.5" stroke-linecap="round" stroke-linejoin="round"/>
<path d="M6.65479 6.50443V1" stroke="#5CB09F" stroke-width="1.5" stroke-linecap="round" stroke-linejoin="round"/>
<path d="M17.6088 14.3682C17.6787 14.3682 17.747 14.3912 17.8051 14.4344C17.8632 14.4776 17.9085 14.539 17.9353 14.6109C17.962 14.6827 17.969 14.7618 17.9554 14.838C17.9417 14.9143 17.9081 14.9844 17.8587 15.0394C17.8092 15.0943 17.7463 15.1318 17.6777 15.147C17.6092 15.1621 17.5381 15.1543 17.4736 15.1246C17.409 15.0948 17.3538 15.0444 17.315 14.9798C17.2762 14.9151 17.2554 14.8391 17.2554 14.7613C17.2554 14.6571 17.2927 14.5571 17.3589 14.4833C17.4252 14.4096 17.5151 14.3682 17.6088 14.3682Z" stroke="#5CB09F" stroke-width="1.5" stroke-linecap="round" stroke-linejoin="round"/>
<path d="M17.6088 19.8721C17.6787 19.8721 17.747 19.8951 17.8051 19.9383C17.8632 19.9815 17.9085 20.0429 17.9353 20.1148C17.962 20.1866 17.969 20.2657 17.9554 20.3419C17.9417 20.4182 17.9081 20.4883 17.8587 20.5433C17.8092 20.5982 17.7463 20.6357 17.6777 20.6509C17.6092 20.666 17.5381 20.6582 17.4736 20.6285C17.409 20.5987 17.3538 20.5483 17.315 20.4837C17.2762 20.419 17.2554 20.343 17.2554 20.2652C17.2554 20.161 17.2927 20.061 17.3589 19.9872C17.4252 19.9135 17.5151 19.8721 17.6088 19.8721Z" stroke="#5CB09F" stroke-width="1.5" stroke-linecap="round" stroke-linejoin="round"/>
<path d="M11.6015 14.3682C11.6714 14.3682 11.7397 14.3912 11.7978 14.4344C11.8559 14.4776 11.9012 14.539 11.9279 14.6109C11.9547 14.6827 11.9617 14.7618 11.948 14.838C11.9344 14.9143 11.9008 14.9844 11.8513 15.0394C11.8019 15.0943 11.739 15.1318 11.6704 15.147C11.6019 15.1621 11.5308 15.1543 11.4663 15.1246C11.4017 15.0948 11.3465 15.0444 11.3077 14.9798C11.2688 14.9151 11.2481 14.8391 11.2481 14.7613C11.2481 14.6571 11.2854 14.5571 11.3516 14.4833C11.4179 14.4096 11.5078 14.3682 11.6015 14.3682Z" stroke="#5CB09F" stroke-width="1.5" stroke-linecap="round" stroke-linejoin="round"/>
<path d="M11.6015 19.8721C11.6714 19.8721 11.7397 19.8951 11.7978 19.9383C11.8559 19.9815 11.9012 20.0429 11.9279 20.1148C11.9547 20.1866 11.9617 20.2657 11.948 20.3419C11.9344 20.4182 11.9008 20.4883 11.8513 20.5433C11.8019 20.5982 11.739 20.6357 11.6704 20.6509C11.6019 20.666 11.5308 20.6582 11.4663 20.6285C11.4017 20.5987 11.3465 20.5483 11.3077 20.4837C11.2688 20.419 11.2481 20.343 11.2481 20.2652C11.2481 20.161 11.2854 20.061 11.3516 19.9872C11.4179 19.9135 11.5078 19.8721 11.6015 19.8721Z" stroke="#5CB09F" stroke-width="1.5" stroke-linecap="round" stroke-linejoin="round"/>
<path d="M5.59269 14.3682C5.66258 14.3682 5.7309 14.3912 5.789 14.4344C5.84711 14.4776 5.8924 14.539 5.91915 14.6109C5.94589 14.6827 5.95289 14.7618 5.93926 14.838C5.92562 14.9143 5.89197 14.9844 5.84255 15.0394C5.79313 15.0943 5.73017 15.1318 5.66163 15.147C5.59308 15.1621 5.52203 15.1543 5.45747 15.1246C5.3929 15.0948 5.33771 15.0444 5.29889 14.9798C5.26006 14.9151 5.23934 14.8391 5.23934 14.7613C5.23934 14.6571 5.27656 14.5571 5.34283 14.4833C5.4091 14.4096 5.49897 14.3682 5.59269 14.3682Z" stroke="#5CB09F" stroke-width="1.5" stroke-linecap="round" stroke-linejoin="round"/>
<path d="M5.59269 19.8721C5.66258 19.8721 5.7309 19.8951 5.789 19.9383C5.84711 19.9815 5.8924 20.0429 5.91915 20.1148C5.94589 20.1866 5.95289 20.2657 5.93926 20.3419C5.92562 20.4182 5.89197 20.4883 5.84255 20.5433C5.79313 20.5982 5.73017 20.6357 5.66163 20.6509C5.59308 20.666 5.52203 20.6582 5.45747 20.6285C5.3929 20.5987 5.33771 20.5483 5.29889 20.4837C5.26006 20.419 5.23934 20.343 5.23934 20.2652C5.23934 20.161 5.27656 20.061 5.34283 19.9872C5.4091 19.9135 5.49897 19.8721 5.59269 19.8721Z" stroke="#5CB09F" stroke-width="1.5" stroke-linecap="round" stroke-linejoin="round"/>
</svg>
