<svg width="104" height="56" viewBox="0 0 104 56" fill="none" xmlns="http://www.w3.org/2000/svg">
<path d="M83.6218 28.0752L99.8256 7.07867H103.934L102.717 0.231934L89.8601 6.92641H95.9458L79.8179 28.0752L86.5126 36.9758H90.3165L83.6218 28.0752Z" fill="white"/>
<path d="M74.2397 27.8365L58.0352 48.8331H53.9272L55.1445 55.6796L68.0009 48.9851H61.9155L78.0434 27.8365L71.3487 18.9355H67.5448L74.2397 27.8365Z" fill="white"/>
<path d="M79.0321 34.1505L81.3138 36.9758H85.0418L79.0321 29.0537L65.3384 46.5293" fill="white"/>
<path d="M78.8288 21.7605L76.5464 18.9348H72.8188L78.8288 26.8575L92.5221 9.38135" fill="white"/>
<path d="M4.36246 18.9251H12.2521L12.6538 31.1729L18.1133 18.9251L25.9832 18.8999L22.1581 37.0086H17.424L20.8766 21.8306L13.3668 37.0086H8.85817L7.97916 21.7052L4.85063 37.0086H0.517578L4.36246 18.9251Z" fill="white"/>
<path d="M31.5424 18.9253H39.9079C43.1639 18.9253 44.3487 19.1256 45.1913 20.2278C45.6252 20.779 46.1136 21.7807 45.6982 23.7343C45.2774 25.713 44.2948 26.5647 43.3314 27.0905C42.0249 27.8169 40.8961 27.9421 40.3792 28.0174L40.3578 28.1174C43.8431 28.2175 43.7133 29.7702 43.5227 32.5505C43.4372 33.778 43.2723 35.7315 43.4268 37.0088H37.9916C37.9252 35.907 38.0931 34.5294 38.2585 32.9264C38.4964 30.7474 38.5915 29.9458 36.3374 29.9458H34.2335L32.7317 37.0088H27.6973L31.5424 18.9253ZM34.9257 26.6897H36.8043C37.9063 26.6897 38.4573 26.6897 38.9151 26.5393C40.0916 26.1887 40.5569 25.0617 40.6792 24.4855C41.1532 22.2564 39.1997 22.2564 37.7468 22.2564H35.8683L34.9257 26.6897Z" fill="white"/>
<path d="M51.797 18.9751H65.3725L64.6374 22.4314H56.0212L55.2223 26.1885H63.3381L62.6028 29.6449H54.4877L53.6677 33.502H62.4842L61.7385 37.0083H47.9629L51.797 18.9751Z" fill="white"/>
</svg>
