<svg width="18" height="18" viewBox="0 0 18 18" fill="none" xmlns="http://www.w3.org/2000/svg">
<g clip-path="url(#clip0)">
<path d="M7.5014 1.08606H10.5097V1.59225H11.5961V1.0152C11.5963 0.45517 11.1409 -0.000488281 10.5811 -0.000488281H7.42999C6.87024 -0.000488281 6.41486 0.45517 6.41486 1.0152V1.59225H7.5014V1.08606Z" fill="white"/>
<path d="M14.105 5.89697H3.90584C3.62637 5.89697 3.40637 6.13538 3.42889 6.41402L4.28157 16.9576C4.32909 17.5462 4.82004 17.9995 5.40987 17.9995H12.6008C13.1907 17.9995 13.6816 17.5462 13.7291 16.9575L14.5818 6.41402C14.6045 6.13538 14.3845 5.89697 14.105 5.89697ZM6.37543 16.8749C6.36403 16.8756 6.35263 16.876 6.34137 16.876C6.05655 16.876 5.81746 16.6542 5.79974 16.3661L5.2654 7.7104C5.24699 7.41089 5.47482 7.15312 5.7742 7.13472C6.07262 7.11659 6.33148 7.34387 6.34988 7.64352L6.88409 16.2992C6.90263 16.5988 6.67481 16.8564 6.37543 16.8749ZM9.55473 16.3327C9.55473 16.6327 9.31152 16.8759 9.01146 16.8759C8.7114 16.8759 8.46819 16.6327 8.46819 16.3327V7.6769C8.46819 7.37683 8.7114 7.13362 9.01146 7.13362C9.31139 7.13362 9.55473 7.37683 9.55473 7.6769V16.3327ZM12.7454 7.70889L12.2353 16.3646C12.2184 16.6533 11.9789 16.8759 11.6935 16.8759C11.6828 16.8759 11.6719 16.8756 11.6611 16.8751C11.3616 16.8573 11.1331 16.6003 11.1508 16.3008L11.6608 7.6449C11.6784 7.34538 11.9346 7.11687 12.235 7.13458C12.5345 7.15216 12.763 7.40938 12.7454 7.70889Z" fill="white"/>
<path d="M15.9837 4.22037L15.6269 3.15085C15.5329 2.86891 15.2689 2.67871 14.9716 2.67871H3.03921C2.74203 2.67871 2.47795 2.86891 2.38401 3.15085L2.02723 4.22037C1.95843 4.42664 2.04797 4.63702 2.2151 4.74194C2.28322 4.78465 2.36383 4.81033 2.4524 4.81033H15.5585C15.6471 4.81033 15.7279 4.78465 15.7958 4.74181C15.963 4.63689 16.0525 4.4265 15.9837 4.22037Z" fill="white"/>
</g>
<defs>
<clipPath id="clip0">
<rect width="18" height="18" fill="white" transform="translate(0 -0.000488281)"/>
</clipPath>
</defs>
</svg>
