<svg width="14" height="17" viewBox="0 0 14 17" fill="none" xmlns="http://www.w3.org/2000/svg">
<path d="M9.30979 6.47607C9.08622 6.47607 8.90503 6.64947 8.90503 6.86341V14.184C8.90503 14.3978 9.08622 14.5713 9.30979 14.5713C9.53336 14.5713 9.71455 14.3978 9.71455 14.184V6.86341C9.71455 6.64947 9.53336 6.47607 9.30979 6.47607Z" fill="#349E89"/>
<path d="M4.45213 6.47607C4.22856 6.47607 4.04736 6.64947 4.04736 6.86341V14.184C4.04736 14.3978 4.22856 14.5713 4.45213 14.5713C4.67569 14.5713 4.85689 14.3978 4.85689 14.184V6.86341C4.85689 6.64947 4.67569 6.47607 4.45213 6.47607Z" fill="#349E89"/>
<path d="M1.12704 5.06106V14.87C1.12704 15.4498 1.33893 15.9943 1.7091 16.3849C2.07755 16.7767 2.59032 16.9991 3.12696 17H10.6349C11.1717 16.9991 11.6845 16.7767 12.0528 16.3849C12.423 15.9943 12.6349 15.4498 12.6349 14.87V5.06106C13.3707 4.86511 13.8475 4.15191 13.7491 3.39438C13.6505 2.63701 13.0074 2.07046 12.246 2.0703H10.2143V1.57265C10.2166 1.15415 10.0517 0.752291 9.75636 0.456652C9.46107 0.161169 9.05991 -0.00336908 8.64278 5.23104e-05H5.11913C4.702 -0.00336908 4.30084 0.161169 4.00555 0.456652C3.71025 0.752291 3.54533 1.15415 3.54765 1.57265V2.0703H1.51595C0.754553 2.07046 0.111423 2.63701 0.0128374 3.39438C-0.085593 4.15191 0.391213 4.86511 1.12704 5.06106ZM10.6349 16.2037H3.12696C2.44849 16.2037 1.92068 15.619 1.92068 14.87V5.09606H11.8412V14.87C11.8412 15.619 11.3134 16.2037 10.6349 16.2037ZM4.34129 1.57265C4.33866 1.36534 4.41988 1.16581 4.56652 1.01947C4.713 0.873129 4.91234 0.792726 5.11913 0.796303H8.64278C8.84956 0.792726 9.0489 0.873129 9.19538 1.01947C9.34202 1.16566 9.42325 1.36534 9.42061 1.57265V2.0703H4.34129V1.57265ZM1.51595 2.86655H12.246C12.6404 2.86655 12.9602 3.18739 12.9602 3.58318C12.9602 3.97897 12.6404 4.2998 12.246 4.2998H1.51595C1.12146 4.2998 0.801675 3.97897 0.801675 3.58318C0.801675 3.18739 1.12146 2.86655 1.51595 2.86655Z" fill="#349E89"/>
<path d="M6.88108 6.47607C6.65751 6.47607 6.47632 6.64947 6.47632 6.86341V14.184C6.47632 14.3978 6.65751 14.5713 6.88108 14.5713C7.10465 14.5713 7.28584 14.3978 7.28584 14.184V6.86341C7.28584 6.64947 7.10465 6.47607 6.88108 6.47607Z" fill="#349E89"/>
</svg>
