<svg width="50" height="50" viewBox="0 0 50 50" fill="none" xmlns="http://www.w3.org/2000/svg">
<g clip-path="url(#clip0)">
<path d="M18.2278 10.7168L31.31 10.7178C31.8879 10.7179 32.442 10.9475 32.8506 11.3561C33.2592 11.7647 33.4888 12.3188 33.4889 12.8966L33.4848 36.8627C33.485 37.0784 33.4213 37.2892 33.3016 37.4687C33.182 37.6481 33.0118 37.7879 32.8126 37.8705C32.6133 37.9531 32.3941 37.9748 32.1826 37.9327C31.9711 37.8906 31.7768 37.7867 31.6244 37.6342L24.7684 31.4151L17.9115 37.6331C17.759 37.7853 17.565 37.8889 17.3537 37.9308C17.1425 37.9727 16.9235 37.951 16.7246 37.8686C16.5256 37.7862 16.3556 37.6466 16.2359 37.4676C16.1162 37.2885 16.0522 37.0781 16.0521 36.8627L16.0521 12.8925C16.053 12.3158 16.2825 11.7629 16.6904 11.355C17.0982 10.9472 17.6511 10.7177 18.2278 10.7168V10.7168Z" stroke="white" stroke-width="2.17915" stroke-linecap="round" stroke-linejoin="round"/>
</g>
<defs>
<clipPath id="clip0">
<rect width="34.8665" height="34.8665" fill="white" transform="translate(0.115234 24.6543) rotate(-45)"/>
</clipPath>
</defs>
</svg>
