<svg width="26" height="26" viewBox="0 0 26 26" fill="none" xmlns="http://www.w3.org/2000/svg">
<path d="M22.9531 0H3.04688C1.36673 0 0 1.36771 0 3.04906V18.3452C0 20.0265 1.36673 21.3942 3.04688 21.3942H9.40723L13.0067 26L16.547 21.3942H22.9531C24.6333 21.3942 26 20.0265 26 18.3452V3.04906C26 1.36771 24.6333 0 22.9531 0ZM23.9688 18.3452C23.9688 18.9056 23.5131 19.3615 22.9531 19.3615H15.5468L12.9933 22.6834L10.3975 19.3615H3.04688C2.48689 19.3615 2.03125 18.9056 2.03125 18.3452V3.04906C2.03125 2.48868 2.48689 2.03271 3.04688 2.03271H22.9531C23.5131 2.03271 23.9688 2.48868 23.9688 3.04906V18.3452ZM11.9348 5.69158C11.9348 4.98986 12.5031 4.42114 13.2043 4.42114C13.9053 4.42114 14.4738 4.98986 14.4738 5.69158C14.4738 6.3933 13.9053 6.96202 13.2043 6.96202C12.5031 6.96202 11.9348 6.3933 11.9348 5.69158ZM14.5859 14.7048L15.4766 16.5316L14.7865 16.8685C14.4425 17.0366 14.073 17.1194 13.7052 17.1194C13.19 17.1194 12.6788 16.957 12.2468 16.639C11.5065 16.0941 11.1328 15.1909 11.2715 14.282C11.2762 14.2502 11.2826 14.2186 11.2905 14.1875L12.0966 10.9784C12.1133 10.7753 11.9959 10.6556 11.9215 10.6008C11.8429 10.5431 11.6803 10.4607 11.4762 10.5606C10.7855 10.8978 10.6432 10.9671 10.6432 10.9671L9.75377 9.13964C9.75417 9.13944 9.89699 9.06977 10.5853 8.7337C11.4115 8.33033 12.3845 8.41847 13.125 8.96337C13.8653 9.50807 14.239 10.4113 14.1005 11.3202C14.0956 11.352 14.0892 11.3836 14.0815 11.4147L13.2753 14.6238C13.2587 14.8269 13.3761 14.9466 13.4503 15.0013C13.529 15.0593 13.6915 15.1415 13.8958 15.0416L14.5859 14.7048Z" fill="white"/>
</svg>
