<svg xmlns="http://www.w3.org/2000/svg" version="1.1" xmlns:xlink="http://www.w3.org/1999/xlink" xmlns:svgjs="http://svgjs.com/svgjs" viewBox="0 0 140 140" width="140" height="140"><g transform="matrix(5.833333333333333,0,0,5.833333333333333,0,0)"><path d="M1.5 9.744L12 0.744 22.5 9.744" fill="none" stroke="#ffffff" stroke-linecap="round" stroke-linejoin="round" stroke-width="1.5"></path><path d="M12,5.244,3.377,12.61a1.186,1.186,0,0,0-.377.8v8.855a.981.981,0,0,0,.978.978H9.75v-7.01a.491.491,0,0,1,.489-.49h3.522a.491.491,0,0,1,.489.49v7.01h5.772A.981.981,0,0,0,21,22.266V13.411a1.186,1.186,0,0,0-.377-.8Z" fill="none" stroke="#ffffff" stroke-linecap="round" stroke-linejoin="round" stroke-width="1.5"></path></g></svg>