<svg width="144" height="144" viewBox="0 0 144 144" fill="none" xmlns="http://www.w3.org/2000/svg">
<rect x="35" y="17" width="71" height="9" fill="#349E89"/>
<rect x="52" y="8" width="37" height="5" fill="#349E89"/>
<ellipse cx="126.5" cy="109" rx="7.5" ry="9" fill="#349E89"/>
<ellipse cx="14.5" cy="109" rx="7.5" ry="9" fill="#349E89"/>
<path d="M139.5 137.25H130.5V121.278C136.876 120.023 141.75 113.541 141.75 105.75C141.75 97.065 135.695 90 128.25 90C120.805 90 114.75 97.065 114.75 105.75C114.75 113.541 119.624 120.023 126 121.278V128.545L122.749 126.377C122.252 126.046 121.644 125.925 121.059 126.043C120.473 126.16 119.958 126.504 119.627 127.001C119.296 127.498 119.175 128.106 119.293 128.691C119.41 129.277 119.754 129.792 120.251 130.123L126 133.954V137.25H112.5V13.5C112.5 12.9033 112.263 12.331 111.841 11.909C111.419 11.4871 110.847 11.25 110.25 11.25H94.5V4.5C94.5 3.90326 94.2629 3.33097 93.841 2.90901C93.419 2.48705 92.8467 2.25 92.25 2.25H51.75C51.1533 2.25 50.581 2.48705 50.159 2.90901C49.7371 3.33097 49.5 3.90326 49.5 4.5V11.25H33.75C33.1533 11.25 32.581 11.4871 32.159 11.909C31.7371 12.331 31.5 12.9033 31.5 13.5V137.25H18V121.278C24.3759 120.023 29.25 113.541 29.25 105.75C29.25 97.065 23.1947 90 15.75 90C8.30531 90 2.25 97.065 2.25 105.75C2.25 113.541 7.12406 120.023 13.5 121.278V128.545L10.2487 126.377C10.0028 126.213 9.72689 126.099 9.43688 126.042C9.14687 125.984 8.84839 125.985 8.5585 126.043C8.26861 126.1 7.99297 126.215 7.74733 126.379C7.5017 126.544 7.29086 126.755 7.12687 127.001C6.96289 127.247 6.84895 127.523 6.79158 127.813C6.73421 128.103 6.73452 128.402 6.7925 128.691C6.85048 128.981 6.96499 129.257 7.12949 129.503C7.29399 129.748 7.50527 129.959 7.75125 130.123L13.5 133.954V137.25H4.5C3.90326 137.25 3.33097 137.487 2.90901 137.909C2.48705 138.331 2.25 138.903 2.25 139.5C2.25 140.097 2.48705 140.669 2.90901 141.091C3.33097 141.513 3.90326 141.75 4.5 141.75H139.5C140.097 141.75 140.669 141.513 141.091 141.091C141.513 140.669 141.75 140.097 141.75 139.5C141.75 138.903 141.513 138.331 141.091 137.909C140.669 137.487 140.097 137.25 139.5 137.25ZM15.75 103.5C15.1533 103.5 14.581 103.737 14.159 104.159C13.7371 104.581 13.5 105.153 13.5 105.75V116.643C9.62156 115.391 6.75 110.981 6.75 105.75C6.75 99.5456 10.7859 94.5 15.75 94.5C20.7141 94.5 24.75 99.5456 24.75 105.75C24.75 110.981 21.8784 115.391 18 116.643V105.75C18 105.153 17.7629 104.581 17.341 104.159C16.919 103.737 16.3467 103.5 15.75 103.5ZM54 6.75H90V11.25H54V6.75ZM69.75 137.25H67.5V119.25H69.75V137.25ZM76.5 137.25H74.25V119.25H76.5V137.25ZM108 137.25H81V117C81 116.403 80.7629 115.831 80.341 115.409C79.919 114.987 79.3467 114.75 78.75 114.75H65.25C64.6533 114.75 64.081 114.987 63.659 115.409C63.2371 115.831 63 116.403 63 117V137.25H36V29.25H108V137.25ZM108 24.75H36V15.75H108V24.75ZM128.25 103.5C127.653 103.5 127.081 103.737 126.659 104.159C126.237 104.581 126 105.153 126 105.75V116.643C122.122 115.391 119.25 110.981 119.25 105.75C119.25 99.5456 123.286 94.5 128.25 94.5C133.214 94.5 137.25 99.5456 137.25 105.75C137.25 110.981 134.378 115.391 130.5 116.643V105.75C130.5 105.153 130.263 104.581 129.841 104.159C129.419 103.737 128.847 103.5 128.25 103.5Z" fill="#349E89"/>
<path d="M78.75 92.25H65.25C64.6533 92.25 64.081 92.4871 63.659 92.909C63.2371 93.331 63 93.9033 63 94.5V108C63 108.597 63.2371 109.169 63.659 109.591C64.081 110.013 64.6533 110.25 65.25 110.25H78.75C79.3467 110.25 79.919 110.013 80.341 109.591C80.7629 109.169 81 108.597 81 108V94.5C81 93.9033 80.7629 93.331 80.341 92.909C79.919 92.4871 79.3467 92.25 78.75 92.25ZM76.5 105.75H67.5V96.75H76.5V105.75Z" fill="#349E89"/>
<path d="M56.25 92.25H42.75C42.1533 92.25 41.581 92.4871 41.159 92.909C40.7371 93.331 40.5 93.9033 40.5 94.5V108C40.5 108.597 40.7371 109.169 41.159 109.591C41.581 110.013 42.1533 110.25 42.75 110.25H56.25C56.8467 110.25 57.419 110.013 57.841 109.591C58.2629 109.169 58.5 108.597 58.5 108V94.5C58.5 93.9033 58.2629 93.331 57.841 92.909C57.419 92.4871 56.8467 92.25 56.25 92.25ZM54 105.75H45V96.75H54V105.75Z" fill="#349E89"/>
<path d="M101.25 92.25H87.75C87.1533 92.25 86.581 92.4871 86.159 92.909C85.7371 93.331 85.5 93.9033 85.5 94.5V108C85.5 108.597 85.7371 109.169 86.159 109.591C86.581 110.013 87.1533 110.25 87.75 110.25H101.25C101.847 110.25 102.419 110.013 102.841 109.591C103.263 109.169 103.5 108.597 103.5 108V94.5C103.5 93.9033 103.263 93.331 102.841 92.909C102.419 92.4871 101.847 92.25 101.25 92.25ZM99 105.75H90V96.75H99V105.75Z" fill="#349E89"/>
<path d="M56.25 114.75H42.75C42.1533 114.75 41.581 114.987 41.159 115.409C40.7371 115.831 40.5 116.403 40.5 117V130.5C40.5 131.097 40.7371 131.669 41.159 132.091C41.581 132.513 42.1533 132.75 42.75 132.75H56.25C56.8467 132.75 57.419 132.513 57.841 132.091C58.2629 131.669 58.5 131.097 58.5 130.5V117C58.5 116.403 58.2629 115.831 57.841 115.409C57.419 114.987 56.8467 114.75 56.25 114.75ZM54 128.25H45V119.25H54V128.25Z" fill="#349E89"/>
<path d="M101.25 114.75H87.75C87.1533 114.75 86.581 114.987 86.159 115.409C85.7371 115.831 85.5 116.403 85.5 117V130.5C85.5 131.097 85.7371 131.669 86.159 132.091C86.581 132.513 87.1533 132.75 87.75 132.75H101.25C101.847 132.75 102.419 132.513 102.841 132.091C103.263 131.669 103.5 131.097 103.5 130.5V117C103.5 116.403 103.263 115.831 102.841 115.409C102.419 114.987 101.847 114.75 101.25 114.75ZM99 128.25H90V119.25H99V128.25Z" fill="#349E89"/>
<path d="M78.75 72H65.25C64.6533 72 64.081 72.2371 63.659 72.659C63.2371 73.081 63 73.6533 63 74.25V87.75C63 88.3467 63.2371 88.919 63.659 89.341C64.081 89.7629 64.6533 90 65.25 90H78.75C79.3467 90 79.919 89.7629 80.341 89.341C80.7629 88.919 81 88.3467 81 87.75V74.25C81 73.6533 80.7629 73.081 80.341 72.659C79.919 72.2371 79.3467 72 78.75 72ZM76.5 85.5H67.5V76.5H76.5V85.5Z" fill="#349E89"/>
<path d="M56.25 72H42.75C42.1533 72 41.581 72.2371 41.159 72.659C40.7371 73.081 40.5 73.6533 40.5 74.25V87.75C40.5 88.3467 40.7371 88.919 41.159 89.341C41.581 89.7629 42.1533 90 42.75 90H56.25C56.8467 90 57.419 89.7629 57.841 89.341C58.2629 88.919 58.5 88.3467 58.5 87.75V74.25C58.5 73.6533 58.2629 73.081 57.841 72.659C57.419 72.2371 56.8467 72 56.25 72ZM54 85.5H45V76.5H54V85.5Z" fill="#349E89"/>
<path d="M101.25 72H87.75C87.1533 72 86.581 72.2371 86.159 72.659C85.7371 73.081 85.5 73.6533 85.5 74.25V87.75C85.5 88.3467 85.7371 88.919 86.159 89.341C86.581 89.7629 87.1533 90 87.75 90H101.25C101.847 90 102.419 89.7629 102.841 89.341C103.263 88.919 103.5 88.3467 103.5 87.75V74.25C103.5 73.6533 103.263 73.081 102.841 72.659C102.419 72.2371 101.847 72 101.25 72ZM99 85.5H90V76.5H99V85.5Z" fill="#349E89"/>
<path d="M78.75 51.75H65.25C64.6533 51.75 64.081 51.9871 63.659 52.409C63.2371 52.831 63 53.4033 63 54V67.5C63 68.0967 63.2371 68.669 63.659 69.091C64.081 69.5129 64.6533 69.75 65.25 69.75H78.75C79.3467 69.75 79.919 69.5129 80.341 69.091C80.7629 68.669 81 68.0967 81 67.5V54C81 53.4033 80.7629 52.831 80.341 52.409C79.919 51.9871 79.3467 51.75 78.75 51.75ZM76.5 65.25H67.5V56.25H76.5V65.25Z" fill="#349E89"/>
<path d="M56.25 51.75H42.75C42.1533 51.75 41.581 51.9871 41.159 52.409C40.7371 52.831 40.5 53.4033 40.5 54V67.5C40.5 68.0967 40.7371 68.669 41.159 69.091C41.581 69.5129 42.1533 69.75 42.75 69.75H56.25C56.8467 69.75 57.419 69.5129 57.841 69.091C58.2629 68.669 58.5 68.0967 58.5 67.5V54C58.5 53.4033 58.2629 52.831 57.841 52.409C57.419 51.9871 56.8467 51.75 56.25 51.75ZM54 65.25H45V56.25H54V65.25Z" fill="#349E89"/>
<path d="M101.25 51.75H87.75C87.1533 51.75 86.581 51.9871 86.159 52.409C85.7371 52.831 85.5 53.4033 85.5 54V67.5C85.5 68.0967 85.7371 68.669 86.159 69.091C86.581 69.5129 87.1533 69.75 87.75 69.75H101.25C101.847 69.75 102.419 69.5129 102.841 69.091C103.263 68.669 103.5 68.0967 103.5 67.5V54C103.5 53.4033 103.263 52.831 102.841 52.409C102.419 51.9871 101.847 51.75 101.25 51.75ZM99 65.25H90V56.25H99V65.25Z" fill="#349E89"/>
<path d="M78.75 31.5H65.25C64.6533 31.5 64.081 31.7371 63.659 32.159C63.2371 32.581 63 33.1533 63 33.75V47.25C63 47.8467 63.2371 48.419 63.659 48.841C64.081 49.2629 64.6533 49.5 65.25 49.5H78.75C79.3467 49.5 79.919 49.2629 80.341 48.841C80.7629 48.419 81 47.8467 81 47.25V33.75C81 33.1533 80.7629 32.581 80.341 32.159C79.919 31.7371 79.3467 31.5 78.75 31.5ZM76.5 45H67.5V36H76.5V45Z" fill="#349E89"/>
<path d="M56.25 31.5H42.75C42.1533 31.5 41.581 31.7371 41.159 32.159C40.7371 32.581 40.5 33.1533 40.5 33.75V47.25C40.5 47.8467 40.7371 48.419 41.159 48.841C41.581 49.2629 42.1533 49.5 42.75 49.5H56.25C56.8467 49.5 57.419 49.2629 57.841 48.841C58.2629 48.419 58.5 47.8467 58.5 47.25V33.75C58.5 33.1533 58.2629 32.581 57.841 32.159C57.419 31.7371 56.8467 31.5 56.25 31.5ZM54 45H45V36H54V45Z" fill="#349E89"/>
<path d="M101.25 31.5H87.75C87.1533 31.5 86.581 31.7371 86.159 32.159C85.7371 32.581 85.5 33.1533 85.5 33.75V47.25C85.5 47.8467 85.7371 48.419 86.159 48.841C86.581 49.2629 87.1533 49.5 87.75 49.5H101.25C101.847 49.5 102.419 49.2629 102.841 48.841C103.263 48.419 103.5 47.8467 103.5 47.25V33.75C103.5 33.1533 103.263 32.581 102.841 32.159C102.419 31.7371 101.847 31.5 101.25 31.5ZM99 45H90V36H99V45Z" fill="#349E89"/>
</svg>
