<svg width="58" height="58" viewBox="0 0 58 58" fill="none" xmlns="http://www.w3.org/2000/svg">
<rect x="14.0972" y="6.84717" width="28.5972" height="3.625" fill="#349E89"/>
<rect x="20.9443" y="3.22217" width="14.9028" height="2.01389" fill="#349E89"/>
<ellipse cx="50.9515" cy="43.9028" rx="3.02083" ry="3.625" fill="#349E89"/>
<ellipse cx="5.84017" cy="43.9028" rx="3.02083" ry="3.625" fill="#349E89"/>
<path d="M56.1875 55.2812H52.5625V48.848C55.1306 48.3428 57.0938 45.7316 57.0938 42.5938C57.0938 39.0956 54.6548 36.25 51.6562 36.25C48.6577 36.25 46.2188 39.0956 46.2188 42.5938C46.2188 45.7316 48.1819 48.3428 50.75 48.848V51.7752L49.4405 50.9018C49.2404 50.7684 48.9955 50.72 48.7597 50.7671C48.5239 50.8143 48.3164 50.9532 48.183 51.1533C48.0497 51.3534 48.0012 51.5983 48.0484 51.8341C48.0955 52.0699 48.2344 52.2773 48.4345 52.4107L50.75 53.9536V55.2812H45.3125V5.4375C45.3125 5.19715 45.217 4.96664 45.0471 4.79668C44.8771 4.62673 44.6466 4.53125 44.4062 4.53125H38.0625V1.8125C38.0625 1.57215 37.967 1.34164 37.7971 1.17168C37.6271 1.00173 37.3966 0.90625 37.1562 0.90625H20.8438C20.6034 0.90625 20.3729 1.00173 20.2029 1.17168C20.033 1.34164 19.9375 1.57215 19.9375 1.8125V4.53125H13.5938C13.3534 4.53125 13.1229 4.62673 12.9529 4.79668C12.783 4.96664 12.6875 5.19715 12.6875 5.4375V55.2812H7.25V48.848C9.81809 48.3428 11.7812 45.7316 11.7812 42.5938C11.7812 39.0956 9.34231 36.25 6.34375 36.25C3.3452 36.25 0.90625 39.0956 0.90625 42.5938C0.90625 45.7316 2.86941 48.3428 5.4375 48.848V51.7752L4.12797 50.9018C4.02889 50.8357 3.91778 50.7899 3.80097 50.7668C3.68415 50.7436 3.56394 50.7438 3.44717 50.7671C3.33041 50.7905 3.21939 50.8366 3.12045 50.9029C3.02152 50.9691 2.9366 51.0542 2.87055 51.1533C2.8045 51.2524 2.75861 51.3635 2.7355 51.4803C2.71239 51.5971 2.71252 51.7173 2.73587 51.8341C2.75922 51.9508 2.80534 52.0619 2.8716 52.1608C2.93786 52.2597 3.02295 52.3447 3.12203 52.4107L5.4375 53.9536V55.2812H1.8125C1.57215 55.2812 1.34164 55.3767 1.17168 55.5467C1.00173 55.7166 0.90625 55.9472 0.90625 56.1875C0.90625 56.4279 1.00173 56.6584 1.17168 56.8283C1.34164 56.9983 1.57215 57.0938 1.8125 57.0938H56.1875C56.4279 57.0938 56.6584 56.9983 56.8283 56.8283C56.9983 56.6584 57.0938 56.4279 57.0938 56.1875C57.0938 55.9472 56.9983 55.7166 56.8283 55.5467C56.6584 55.3767 56.4279 55.2812 56.1875 55.2812ZM6.34375 41.6875C6.1034 41.6875 5.87289 41.783 5.70293 41.9529C5.53298 42.1229 5.4375 42.3534 5.4375 42.5938V46.9811C3.87535 46.477 2.71875 44.7008 2.71875 42.5938C2.71875 40.0948 4.34434 38.0625 6.34375 38.0625C8.34316 38.0625 9.96875 40.0948 9.96875 42.5938C9.96875 44.7008 8.81215 46.477 7.25 46.9811V42.5938C7.25 42.3534 7.15452 42.1229 6.98457 41.9529C6.81461 41.783 6.5841 41.6875 6.34375 41.6875ZM21.75 2.71875H36.25V4.53125H21.75V2.71875ZM28.0938 55.2812H27.1875V48.0312H28.0938V55.2812ZM30.8125 55.2812H29.9062V48.0312H30.8125V55.2812ZM43.5 55.2812H32.625V47.125C32.625 46.8846 32.5295 46.6541 32.3596 46.4842C32.1896 46.3142 31.9591 46.2188 31.7188 46.2188H26.2812C26.0409 46.2188 25.8104 46.3142 25.6404 46.4842C25.4705 46.6541 25.375 46.8846 25.375 47.125V55.2812H14.5V11.7812H43.5V55.2812ZM43.5 9.96875H14.5V6.34375H43.5V9.96875ZM51.6562 41.6875C51.4159 41.6875 51.1854 41.783 51.0154 41.9529C50.8455 42.1229 50.75 42.3534 50.75 42.5938V46.9811C49.1879 46.477 48.0312 44.7008 48.0312 42.5938C48.0312 40.0948 49.6568 38.0625 51.6562 38.0625C53.6557 38.0625 55.2812 40.0948 55.2812 42.5938C55.2812 44.7008 54.1246 46.477 52.5625 46.9811V42.5938C52.5625 42.3534 52.467 42.1229 52.2971 41.9529C52.1271 41.783 51.8966 41.6875 51.6562 41.6875Z" fill="#349E89"/>
<path d="M31.7188 37.1562H26.2812C26.0409 37.1562 25.8104 37.2517 25.6404 37.4217C25.4705 37.5916 25.375 37.8221 25.375 38.0625V43.5C25.375 43.7404 25.4705 43.9709 25.6404 44.1408C25.8104 44.3108 26.0409 44.4062 26.2812 44.4062H31.7188C31.9591 44.4062 32.1896 44.3108 32.3596 44.1408C32.5295 43.9709 32.625 43.7404 32.625 43.5V38.0625C32.625 37.8221 32.5295 37.5916 32.3596 37.4217C32.1896 37.2517 31.9591 37.1562 31.7188 37.1562ZM30.8125 42.5938H27.1875V38.9688H30.8125V42.5938Z" fill="#349E89"/>
<path d="M22.6562 37.1562H17.2188C16.9784 37.1562 16.7479 37.2517 16.5779 37.4217C16.408 37.5916 16.3125 37.8221 16.3125 38.0625V43.5C16.3125 43.7404 16.408 43.9709 16.5779 44.1408C16.7479 44.3108 16.9784 44.4062 17.2188 44.4062H22.6562C22.8966 44.4062 23.1271 44.3108 23.2971 44.1408C23.467 43.9709 23.5625 43.7404 23.5625 43.5V38.0625C23.5625 37.8221 23.467 37.5916 23.2971 37.4217C23.1271 37.2517 22.8966 37.1562 22.6562 37.1562ZM21.75 42.5938H18.125V38.9688H21.75V42.5938Z" fill="#349E89"/>
<path d="M40.7812 37.1562H35.3438C35.1034 37.1562 34.8729 37.2517 34.7029 37.4217C34.533 37.5916 34.4375 37.8221 34.4375 38.0625V43.5C34.4375 43.7404 34.533 43.9709 34.7029 44.1408C34.8729 44.3108 35.1034 44.4062 35.3438 44.4062H40.7812C41.0216 44.4062 41.2521 44.3108 41.4221 44.1408C41.592 43.9709 41.6875 43.7404 41.6875 43.5V38.0625C41.6875 37.8221 41.592 37.5916 41.4221 37.4217C41.2521 37.2517 41.0216 37.1562 40.7812 37.1562ZM39.875 42.5938H36.25V38.9688H39.875V42.5938Z" fill="#349E89"/>
<path d="M22.6562 46.2188H17.2188C16.9784 46.2188 16.7479 46.3142 16.5779 46.4842C16.408 46.6541 16.3125 46.8846 16.3125 47.125V52.5625C16.3125 52.8029 16.408 53.0334 16.5779 53.2033C16.7479 53.3733 16.9784 53.4688 17.2188 53.4688H22.6562C22.8966 53.4688 23.1271 53.3733 23.2971 53.2033C23.467 53.0334 23.5625 52.8029 23.5625 52.5625V47.125C23.5625 46.8846 23.467 46.6541 23.2971 46.4842C23.1271 46.3142 22.8966 46.2188 22.6562 46.2188ZM21.75 51.6562H18.125V48.0312H21.75V51.6562Z" fill="#349E89"/>
<path d="M40.7812 46.2188H35.3438C35.1034 46.2188 34.8729 46.3142 34.7029 46.4842C34.533 46.6541 34.4375 46.8846 34.4375 47.125V52.5625C34.4375 52.8029 34.533 53.0334 34.7029 53.2033C34.8729 53.3733 35.1034 53.4688 35.3438 53.4688H40.7812C41.0216 53.4688 41.2521 53.3733 41.4221 53.2033C41.592 53.0334 41.6875 52.8029 41.6875 52.5625V47.125C41.6875 46.8846 41.592 46.6541 41.4221 46.4842C41.2521 46.3142 41.0216 46.2188 40.7812 46.2188ZM39.875 51.6562H36.25V48.0312H39.875V51.6562Z" fill="#349E89"/>
<path d="M31.7188 29H26.2812C26.0409 29 25.8104 29.0955 25.6404 29.2654C25.4705 29.4354 25.375 29.6659 25.375 29.9062V35.3438C25.375 35.5841 25.4705 35.8146 25.6404 35.9846C25.8104 36.1545 26.0409 36.25 26.2812 36.25H31.7188C31.9591 36.25 32.1896 36.1545 32.3596 35.9846C32.5295 35.8146 32.625 35.5841 32.625 35.3438V29.9062C32.625 29.6659 32.5295 29.4354 32.3596 29.2654C32.1896 29.0955 31.9591 29 31.7188 29ZM30.8125 34.4375H27.1875V30.8125H30.8125V34.4375Z" fill="#349E89"/>
<path d="M22.6562 29H17.2188C16.9784 29 16.7479 29.0955 16.5779 29.2654C16.408 29.4354 16.3125 29.6659 16.3125 29.9062V35.3438C16.3125 35.5841 16.408 35.8146 16.5779 35.9846C16.7479 36.1545 16.9784 36.25 17.2188 36.25H22.6562C22.8966 36.25 23.1271 36.1545 23.2971 35.9846C23.467 35.8146 23.5625 35.5841 23.5625 35.3438V29.9062C23.5625 29.6659 23.467 29.4354 23.2971 29.2654C23.1271 29.0955 22.8966 29 22.6562 29ZM21.75 34.4375H18.125V30.8125H21.75V34.4375Z" fill="#349E89"/>
<path d="M40.7812 29H35.3438C35.1034 29 34.8729 29.0955 34.7029 29.2654C34.533 29.4354 34.4375 29.6659 34.4375 29.9062V35.3438C34.4375 35.5841 34.533 35.8146 34.7029 35.9846C34.8729 36.1545 35.1034 36.25 35.3438 36.25H40.7812C41.0216 36.25 41.2521 36.1545 41.4221 35.9846C41.592 35.8146 41.6875 35.5841 41.6875 35.3438V29.9062C41.6875 29.6659 41.592 29.4354 41.4221 29.2654C41.2521 29.0955 41.0216 29 40.7812 29ZM39.875 34.4375H36.25V30.8125H39.875V34.4375Z" fill="#349E89"/>
<path d="M31.7188 20.8438H26.2812C26.0409 20.8438 25.8104 20.9392 25.6404 21.1092C25.4705 21.2791 25.375 21.5096 25.375 21.75V27.1875C25.375 27.4279 25.4705 27.6584 25.6404 27.8283C25.8104 27.9983 26.0409 28.0938 26.2812 28.0938H31.7188C31.9591 28.0938 32.1896 27.9983 32.3596 27.8283C32.5295 27.6584 32.625 27.4279 32.625 27.1875V21.75C32.625 21.5096 32.5295 21.2791 32.3596 21.1092C32.1896 20.9392 31.9591 20.8438 31.7188 20.8438ZM30.8125 26.2812H27.1875V22.6562H30.8125V26.2812Z" fill="#349E89"/>
<path d="M22.6562 20.8438H17.2188C16.9784 20.8438 16.7479 20.9392 16.5779 21.1092C16.408 21.2791 16.3125 21.5096 16.3125 21.75V27.1875C16.3125 27.4279 16.408 27.6584 16.5779 27.8283C16.7479 27.9983 16.9784 28.0938 17.2188 28.0938H22.6562C22.8966 28.0938 23.1271 27.9983 23.2971 27.8283C23.467 27.6584 23.5625 27.4279 23.5625 27.1875V21.75C23.5625 21.5096 23.467 21.2791 23.2971 21.1092C23.1271 20.9392 22.8966 20.8438 22.6562 20.8438ZM21.75 26.2812H18.125V22.6562H21.75V26.2812Z" fill="#349E89"/>
<path d="M40.7812 20.8438H35.3438C35.1034 20.8438 34.8729 20.9392 34.7029 21.1092C34.533 21.2791 34.4375 21.5096 34.4375 21.75V27.1875C34.4375 27.4279 34.533 27.6584 34.7029 27.8283C34.8729 27.9983 35.1034 28.0938 35.3438 28.0938H40.7812C41.0216 28.0938 41.2521 27.9983 41.4221 27.8283C41.592 27.6584 41.6875 27.4279 41.6875 27.1875V21.75C41.6875 21.5096 41.592 21.2791 41.4221 21.1092C41.2521 20.9392 41.0216 20.8438 40.7812 20.8438ZM39.875 26.2812H36.25V22.6562H39.875V26.2812Z" fill="#349E89"/>
<path d="M31.7188 12.6875H26.2812C26.0409 12.6875 25.8104 12.783 25.6404 12.9529C25.4705 13.1229 25.375 13.3534 25.375 13.5938V19.0312C25.375 19.2716 25.4705 19.5021 25.6404 19.6721C25.8104 19.842 26.0409 19.9375 26.2812 19.9375H31.7188C31.9591 19.9375 32.1896 19.842 32.3596 19.6721C32.5295 19.5021 32.625 19.2716 32.625 19.0312V13.5938C32.625 13.3534 32.5295 13.1229 32.3596 12.9529C32.1896 12.783 31.9591 12.6875 31.7188 12.6875ZM30.8125 18.125H27.1875V14.5H30.8125V18.125Z" fill="#349E89"/>
<path d="M22.6562 12.6875H17.2188C16.9784 12.6875 16.7479 12.783 16.5779 12.9529C16.408 13.1229 16.3125 13.3534 16.3125 13.5938V19.0312C16.3125 19.2716 16.408 19.5021 16.5779 19.6721C16.7479 19.842 16.9784 19.9375 17.2188 19.9375H22.6562C22.8966 19.9375 23.1271 19.842 23.2971 19.6721C23.467 19.5021 23.5625 19.2716 23.5625 19.0312V13.5938C23.5625 13.3534 23.467 13.1229 23.2971 12.9529C23.1271 12.783 22.8966 12.6875 22.6562 12.6875ZM21.75 18.125H18.125V14.5H21.75V18.125Z" fill="#349E89"/>
<path d="M40.7812 12.6875H35.3438C35.1034 12.6875 34.8729 12.783 34.7029 12.9529C34.533 13.1229 34.4375 13.3534 34.4375 13.5938V19.0312C34.4375 19.2716 34.533 19.5021 34.7029 19.6721C34.8729 19.842 35.1034 19.9375 35.3438 19.9375H40.7812C41.0216 19.9375 41.2521 19.842 41.4221 19.6721C41.592 19.5021 41.6875 19.2716 41.6875 19.0312V13.5938C41.6875 13.3534 41.592 13.1229 41.4221 12.9529C41.2521 12.783 41.0216 12.6875 40.7812 12.6875ZM39.875 18.125H36.25V14.5H39.875V18.125Z" fill="#349E89"/>
</svg>
