<svg width="24" height="24" viewBox="0 0 24 24" fill="none" xmlns="http://www.w3.org/2000/svg">
<circle cx="11.9999" cy="11.9999" r="10.9091" fill="white"/>
<path d="M12.0469 0C5.48925 0 0 5.29823 0 11.9531C0 18.5709 5.45831 24 12.0469 24C18.7092 24 24 18.5036 24 11.9531C24 5.34656 18.654 0 12.0469 0ZM12.0469 22.5984C6.17963 22.5984 1.40156 17.8204 1.40156 11.9531C1.40156 6.13758 6.17963 1.40156 12.0469 1.40156C17.8624 1.40156 22.5984 6.13758 22.5984 11.9531C22.5984 17.9079 17.8624 22.5984 12.0469 22.5984Z" fill="#349E89"/>
<path d="M12.0469 2.8125C7.0133 2.8125 2.8125 6.89414 2.8125 11.9531C2.8125 16.9919 6.99127 21.1875 12.0469 21.1875C17.1106 21.1875 21.1875 16.9831 21.1875 11.9531C21.1875 6.91298 17.087 2.8125 12.0469 2.8125ZM12.0469 19.7859C7.80361 19.7859 4.21406 16.1964 4.21406 11.9531C4.21406 7.68839 7.73044 4.21406 12.0469 4.21406C16.3116 4.21406 19.7859 7.68839 19.7859 11.9531C19.7859 16.2696 16.3116 19.7859 12.0469 19.7859Z" fill="#349E89"/>
<path d="M13.4531 11.25H12.75V8.4375H13.4531C13.8408 8.4375 14.1562 8.75288 14.1562 9.14062C14.1562 9.52894 14.4711 9.8437 14.8594 9.8437C15.2477 9.8437 15.5625 9.52884 15.5625 9.14053C15.5625 7.97747 14.6162 7.03125 13.4531 7.03125H12.75V6.32812C12.75 5.93981 12.4352 5.625 12.0469 5.625C11.6586 5.625 11.3438 5.93981 11.3438 6.32812V7.03125H10.5469C9.38377 7.03125 8.4375 7.97752 8.4375 9.14062V10.5469C8.4375 11.71 9.38377 12.6562 10.5469 12.6562H11.3438V15.5625H10.5469C10.1592 15.5625 9.84375 15.2471 9.84375 14.8594C9.84375 14.4711 9.52894 14.1562 9.14062 14.1562C8.75231 14.1562 8.4375 14.4711 8.4375 14.8594C8.4375 16.0225 9.38377 16.9688 10.5469 16.9688H11.3438V17.6719C11.3438 18.0602 11.6586 18.375 12.0469 18.375C12.4352 18.375 12.75 18.0602 12.75 17.6719V16.9688H13.4531C14.6162 16.9688 15.5625 16.0225 15.5625 14.8594V13.3594C15.5625 12.1963 14.6162 11.25 13.4531 11.25ZM11.3438 11.25H10.5469C10.1592 11.25 9.84375 10.9346 9.84375 10.5469V9.14062C9.84375 8.75292 10.1592 8.4375 10.5469 8.4375H11.3438V11.25ZM14.1562 14.8594C14.1562 15.2471 13.8408 15.5625 13.4531 15.5625H12.75V12.6562H13.4531C13.8408 12.6562 14.1562 12.9717 14.1562 13.3594V14.8594Z" fill="#349E89"/>
</svg>
