<svg width="18" height="18" viewBox="0 0 18 18" fill="none" xmlns="http://www.w3.org/2000/svg">
<path d="M1 10C1 10.7956 1.31607 11.5587 1.87868 12.1213C2.44129 12.6839 3.20435 13 4 13C4.79565 13 5.55871 12.6839 6.12132 12.1213C6.68393 11.5587 7 10.7956 7 10C7 9.20435 6.68393 8.44129 6.12132 7.87868C5.55871 7.31607 4.79565 7 4 7C3.20435 7 2.44129 7.31607 1.87868 7.87868C1.31607 8.44129 1 9.20435 1 10Z" stroke="#4B4B4B" stroke-width="1.25" stroke-linecap="round" stroke-linejoin="round"/>
<path d="M11 14C11 14.7956 11.3161 15.5587 11.8787 16.1213C12.4413 16.6839 13.2044 17 14 17C14.7956 17 15.5587 16.6839 16.1213 16.1213C16.6839 15.5587 17 14.7956 17 14C17 13.2044 16.6839 12.4413 16.1213 11.8787C15.5587 11.3161 14.7956 11 14 11C13.2044 11 12.4413 11.3161 11.8787 11.8787C11.3161 12.4413 11 13.2044 11 14V14Z" stroke="#4B4B4B" stroke-width="1.25" stroke-linecap="round" stroke-linejoin="round"/>
<path d="M11 4C11 4.79565 11.3161 5.55871 11.8787 6.12132C12.4413 6.68393 13.2044 7 14 7C14.7956 7 15.5587 6.68393 16.1213 6.12132C16.6839 5.55871 17 4.79565 17 4C17 3.20435 16.6839 2.44129 16.1213 1.87868C15.5587 1.31607 14.7956 1 14 1C13.2044 1 12.4413 1.31607 11.8787 1.87868C11.3161 2.44129 11 3.20435 11 4V4Z" stroke="#4B4B4B" stroke-width="1.25" stroke-linecap="round" stroke-linejoin="round"/>
<path d="M6.56665 8.46004L11.4333 5.54004" stroke="#4B4B4B" stroke-width="1.25" stroke-linecap="round" stroke-linejoin="round"/>
<path d="M6.78394 11.1133L11.2159 12.8866" stroke="#4B4B4B" stroke-width="1.25" stroke-linecap="round" stroke-linejoin="round"/>
</svg>
