<svg width="133" height="140" viewBox="0 0 133 140" fill="none" xmlns="http://www.w3.org/2000/svg">
<path d="M129.828 134.532H123.83V47.4516C123.83 43.3985 120.533 40.1011 116.48 40.1011H103.075C99.0215 40.1011 95.7242 43.3987 95.7242 47.4516V134.532H80.4959V86.9057C80.4959 82.8525 77.1985 79.5551 73.1453 79.5551H59.7403C55.6872 79.5551 52.3898 82.8528 52.3898 86.9057V134.532H37.1615V109.866C37.1615 105.813 33.8639 102.516 29.811 102.516H16.4057C12.3525 102.516 9.05515 105.814 9.05515 109.866V134.532H2.73437C1.22418 134.532 0 135.756 0 137.266C0 138.776 1.22418 140 2.73437 140H129.828C131.338 140 132.562 138.776 132.562 137.266C132.562 135.756 131.338 134.532 129.828 134.532ZM31.6922 134.532H14.5236V109.866C14.5236 108.829 15.3677 107.985 16.4054 107.985H29.8104C30.8481 107.985 31.6922 108.829 31.6922 109.866V134.532ZM75.0269 134.532H57.8583V86.9057C57.8583 85.868 58.7024 85.0238 59.7401 85.0238H73.1451C74.1825 85.0238 75.0269 85.868 75.0269 86.9057V134.532ZM118.362 134.532H101.193V47.4516C101.193 46.4139 102.037 45.5698 103.075 45.5698H116.48C117.517 45.5698 118.362 46.4139 118.362 47.4516V134.532Z" fill="#5CB09F"/>
<path d="M123.824 2.87547C123.862 2.12926 123.599 1.37047 123.03 0.800625C122.46 0.230781 121.701 -0.0319922 120.955 0.0065625C120.911 0.00464844 120.867 0 120.822 0H104.279C102.769 0 101.545 1.22418 101.545 2.73438C101.545 4.24457 102.769 5.46875 104.279 5.46875H114.494L87.463 32.5002L77.2693 22.3065C76.7566 21.7938 76.061 21.5056 75.3358 21.5056C74.6107 21.5056 73.915 21.7938 73.4023 22.3065L24.2468 71.4623C23.179 72.5301 23.179 74.2615 24.2468 75.3296C24.7808 75.863 25.4805 76.1299 26.1802 76.1299C26.88 76.1299 27.58 75.8631 28.1137 75.329L75.3358 28.1066L85.5296 38.3004C86.5973 39.3682 88.3287 39.3682 89.3968 38.3004L118.361 9.33598V18.5809C118.361 20.0911 119.586 21.3153 121.096 21.3153C122.606 21.3153 123.83 20.0911 123.83 18.5809V3.00781C123.83 2.96324 123.826 2.91977 123.824 2.87547Z" fill="#5CB09F"/>
<path d="M16.9637 85.6709C18.4739 85.6709 19.6981 84.4467 19.6981 82.9365C19.6981 81.4264 18.4739 80.2021 16.9637 80.2021C15.4536 80.2021 14.2294 81.4264 14.2294 82.9365C14.2294 84.4467 15.4536 85.6709 16.9637 85.6709Z" fill="#5CB09F"/>
</svg>
