<svg width="155" height="93" viewBox="0 0 155 93" fill="none" xmlns="http://www.w3.org/2000/svg">
<path d="M92.6726 12.986L151.661 0.214125L152.427 0.0485325C152.818 -0.0365704 153.224 -0.00935389 153.6 0.127053C153.975 0.26346 154.305 0.503511 154.551 0.819613C154.797 1.13572 154.949 1.51503 154.989 1.91393C155.03 2.31283 154.957 2.71511 154.78 3.07453L131.359 50.8126C131.208 51.1193 130.985 51.385 130.71 51.5873C130.435 51.7895 130.115 51.9224 129.778 51.9749C129.44 52.0276 129.094 51.997 128.77 51.8856C128.447 51.7742 128.155 51.5854 127.92 51.3354L111.653 34.1192C111.537 33.9937 111.396 33.8935 111.24 33.8251C111.084 33.7566 110.916 33.7213 110.745 33.7215C110.513 33.7182 110.285 33.7782 110.085 33.895C109.885 34.0119 109.72 34.1813 109.608 34.3849L106.276 40.5709C106.063 40.9834 105.719 41.3125 105.299 41.506C104.878 41.6995 104.405 41.7462 103.955 41.6386L103.938 41.6349C103.483 41.538 103.073 41.2902 102.774 40.9313C102.476 40.5723 102.307 40.1231 102.293 39.6559L101.626 25.3765C101.618 25.1983 101.574 25.0237 101.496 24.8634C101.412 24.7048 101.298 24.564 101.161 24.4489L91.7764 16.7166C91.4679 16.4625 91.237 16.1262 91.1102 15.7464C90.9833 15.3666 90.9657 14.9587 91.0592 14.5693C91.1528 14.1799 91.3537 13.8248 91.6391 13.5448C91.9244 13.2647 92.2826 13.0711 92.6726 12.986H92.6726ZM92.3123 16.0593L101.697 23.7916C101.819 23.8905 101.93 24.0029 102.027 24.1266L151.767 1.48512C151.811 1.46463 151.857 1.44852 151.904 1.43701C152.096 1.38737 152.299 1.4066 152.478 1.49135C152.657 1.57611 152.801 1.72107 152.885 1.90116C152.969 2.08126 152.988 2.28515 152.938 2.47759C152.888 2.67004 152.773 2.83894 152.612 2.95506L111.715 33.1082C111.922 33.2165 112.11 33.3599 112.269 33.5321L128.536 50.7482C128.677 50.8973 128.852 51.01 129.046 51.0767C129.24 51.1434 129.447 51.1621 129.649 51.1313C129.852 51.1005 130.044 51.0211 130.21 50.8998C130.375 50.7785 130.509 50.6189 130.6 50.4346L154.02 2.6965C154.125 2.4808 154.167 2.23992 154.142 2.00131C154.117 1.7627 154.026 1.53593 153.879 1.34687C153.732 1.1578 153.535 1.01403 153.31 0.931936C153.085 0.849838 152.842 0.832711 152.608 0.882513L151.824 1.05273L92.8539 13.82C92.6197 13.8709 92.4046 13.9869 92.2331 14.1548C92.0616 14.3227 91.9407 14.5357 91.8842 14.7693C91.8277 15.003 91.8378 15.2479 91.9136 15.476C91.9893 15.7042 92.1275 15.9063 92.3123 16.0593Z" fill="#349E89"/>
<path d="M92.6726 12.986L151.661 0.214125L152.427 0.0485325C152.818 -0.0365704 153.224 -0.00935389 153.6 0.127053C153.975 0.26346 154.305 0.503511 154.551 0.819613C154.797 1.13572 154.949 1.51503 154.989 1.91393C155.03 2.31283 154.957 2.71511 154.78 3.07453L131.359 50.8126C131.208 51.1193 130.985 51.385 130.71 51.5873C130.435 51.7895 130.115 51.9224 129.778 51.9749C129.44 52.0276 129.094 51.997 128.77 51.8856C128.447 51.7742 128.155 51.5854 127.92 51.3354L111.653 34.1192C111.537 33.9937 111.396 33.8935 111.24 33.8251C111.084 33.7566 110.916 33.7213 110.745 33.7215C110.513 33.7182 110.285 33.7782 110.085 33.895C109.885 34.0119 109.72 34.1813 109.608 34.3849L106.276 40.5709C106.063 40.9834 105.719 41.3125 105.299 41.506C104.878 41.6995 104.405 41.7462 103.955 41.6386L103.938 41.6349C103.483 41.538 103.073 41.2902 102.774 40.9313C102.476 40.5723 102.307 40.1231 102.293 39.6559L101.626 25.3765C101.618 25.1983 101.574 25.0237 101.496 24.8634C101.412 24.7048 101.298 24.564 101.161 24.4489L91.7764 16.7166C91.4679 16.4625 91.237 16.1262 91.1102 15.7464C90.9833 15.3666 90.9657 14.9587 91.0592 14.5693C91.1528 14.1799 91.3537 13.8248 91.6391 13.5448C91.9244 13.2647 92.2826 13.0711 92.6726 12.986H92.6726ZM92.3123 16.0593L101.697 23.7916C101.819 23.8905 101.93 24.0029 102.027 24.1266C102.115 24.2367 102.191 24.3559 102.253 24.4821C102.319 24.6112 102.37 24.747 102.407 24.887L102.406 24.8912C102.445 25.0371 102.468 25.1869 102.473 25.3378L103.14 39.6172C103.146 39.8979 103.247 40.1684 103.426 40.3842C103.605 40.5999 103.852 40.7481 104.126 40.8042L104.134 40.8061C104.404 40.8734 104.689 40.8472 104.943 40.7317C105.196 40.6162 105.403 40.4182 105.53 40.1697L108.863 33.9796C109.035 33.6612 109.285 33.3921 109.589 33.1979C109.894 33.0037 110.243 32.8908 110.603 32.8699L110.607 32.8708C110.655 32.8685 110.703 32.8661 110.751 32.8679C111.087 32.868 111.418 32.9505 111.715 33.1082C111.922 33.2165 112.11 33.3599 112.269 33.5321L128.536 50.7482C128.677 50.8973 128.852 51.01 129.046 51.0767C129.24 51.1434 129.447 51.1621 129.649 51.1313C129.852 51.1005 130.044 51.0211 130.21 50.8998C130.375 50.7785 130.509 50.6189 130.6 50.4346L154.02 2.6965C154.125 2.4808 154.167 2.23992 154.142 2.00131C154.117 1.7627 154.026 1.53593 153.879 1.34687C153.732 1.1578 153.535 1.01403 153.31 0.931936C153.085 0.849838 152.842 0.832711 152.608 0.882513L151.824 1.05273L92.8539 13.82C92.6197 13.8709 92.4046 13.9869 92.2331 14.1548C92.0616 14.3227 91.9407 14.5357 91.8842 14.7693C91.8277 15.003 91.8378 15.2479 91.9136 15.476C91.9893 15.7042 92.1275 15.9063 92.3123 16.0593Z" fill="#349E89" fill-opacity="0.4"/>
<path d="M101.839 24.211L102.19 24.9867L102.406 24.8908L102.407 24.8867L152.108 2.26701L110.607 32.8704L110.603 32.8696L110.493 32.9542L110.993 33.641L111.715 33.1078L152.612 2.95471C152.773 2.83859 152.888 2.6697 152.938 2.47726C152.988 2.28481 152.969 2.08091 152.885 1.90082C152.801 1.72072 152.657 1.57576 152.478 1.49101C152.299 1.40625 152.096 1.38703 151.904 1.43666C151.857 1.44817 151.811 1.46429 151.767 1.48478L102.027 24.1263L101.839 24.211Z" fill="#349E89" fill-opacity="0.4"/>
<path d="M1 67.3936C14.3333 82.9892 45.6221 107.162 64.111 79.0902C82.6 51.018 93.7407 44 97 44" stroke="#349E89" stroke-dasharray="4 2"/>
</svg>
