<svg width="193" height="193" viewBox="0 0 193 193" fill="none" xmlns="http://www.w3.org/2000/svg">
<mask id="path-1-inside-1" fill="white">
<path d="M79.425 0.000393257L69.1104 10.3165L69.1104 21.12C69.8805 21.8901 73.3776 25.3872 85.1765 37.1876L85.1765 55.2475L79.7431 60.6809L77.1089 58.0452L77.1088 50.1527L66.6676 39.7114C59.236 32.2799 47.1441 32.2799 39.7125 39.7114C32.281 47.143 32.281 59.2349 39.7125 66.6665L50.1538 77.1078L58.0462 77.1078L60.6805 79.7435L55.2471 85.1769L37.1872 85.1769C32.25 80.2382 34.9741 82.9623 21.1211 69.1093L10.3161 69.1093L-4.9645e-06 79.4254C24.5446 103.97 18.6371 98.0625 56.9875 136.413L60.9853 132.414L35.9769 107.405L43.5571 107.405L53.7481 117.596L57.7473 113.599L51.5541 107.405L73.4748 107.405C75.6658 109.596 156.767 190.696 159.071 193L170.827 181.242L170.827 173.32C169.615 172.109 126.429 128.923 125.075 127.568L127.567 125.073C128.659 126.165 171.281 168.787 173.322 170.828L181.242 170.828L193 159.07L107.406 73.4766L107.406 51.5545L113.598 57.7477L117.597 53.7485L107.406 43.5575L107.406 35.9787L132.413 60.9857L136.413 56.9879C133.884 54.4582 81.3716 1.94552 79.425 0.000393257ZM74.7647 18.7773L74.7647 12.6592L79.425 7.99737L89.2391 17.8114C86.381 20.6695 84.3755 22.675 81.5189 25.5316L74.7647 18.7773ZM52.4965 71.4535L43.7103 62.6687C38.4845 57.4415 38.4845 48.9379 43.7103 43.7107C48.9375 38.4849 57.4411 38.4849 62.6683 43.7107L71.4531 52.4954L71.4531 64.5697L64.5693 71.4535L52.4965 71.4535ZM12.6574 74.7651L18.7784 74.7651L25.5312 81.5178L17.811 89.2394L7.99698 79.4254L12.6574 74.7651ZM165.173 175.663L165.173 178.9L159.07 185.003L143.852 169.785L147.712 165.924L151.572 162.063L165.173 175.663ZM185.003 159.07L178.899 165.172L175.663 165.172L162.063 151.572L169.785 143.852L185.003 159.07ZM165.785 139.853L158.065 147.574L127.567 117.076L117.076 127.568L147.574 158.066L143.713 161.925L139.854 165.786L67.074 93.006L63.0747 97.0038L67.8205 101.75L30.3226 101.75L21.8102 93.2372L29.5304 85.517L34.846 90.8312L57.5898 90.8312L68.679 79.7435L66.0432 77.1078L66.912 77.1078L77.1089 66.9109L77.1089 66.0421L79.7431 68.6779L90.8323 57.5887L90.8323 34.8449L85.5167 29.5293C88.3762 26.6712 90.3802 24.6672 93.2383 21.8092L101.751 30.3215L101.751 67.8194L97.0049 63.0736L93.0056 67.0729L165.785 139.853Z"/>
</mask>
<path d="M79.425 0.000393257L69.1104 10.3165L69.1104 21.12C69.8805 21.8901 73.3776 25.3872 85.1765 37.1876L85.1765 55.2475L79.7431 60.6809L77.1089 58.0452L77.1088 50.1527L66.6676 39.7114C59.236 32.2799 47.1441 32.2799 39.7125 39.7114C32.281 47.143 32.281 59.2349 39.7125 66.6665L50.1538 77.1078L58.0462 77.1078L60.6805 79.7435L55.2471 85.1769L37.1872 85.1769C32.25 80.2382 34.9741 82.9623 21.1211 69.1093L10.3161 69.1093L-4.9645e-06 79.4254C24.5446 103.97 18.6371 98.0625 56.9875 136.413L60.9853 132.414L35.9769 107.405L43.5571 107.405L53.7481 117.596L57.7473 113.599L51.5541 107.405L73.4748 107.405C75.6658 109.596 156.767 190.696 159.071 193L170.827 181.242L170.827 173.32C169.615 172.109 126.429 128.923 125.075 127.568L127.567 125.073C128.659 126.165 171.281 168.787 173.322 170.828L181.242 170.828L193 159.07L107.406 73.4766L107.406 51.5545L113.598 57.7477L117.597 53.7485L107.406 43.5575L107.406 35.9787L132.413 60.9857L136.413 56.9879C133.884 54.4582 81.3716 1.94552 79.425 0.000393257ZM74.7647 18.7773L74.7647 12.6592L79.425 7.99737L89.2391 17.8114C86.381 20.6695 84.3755 22.675 81.5189 25.5316L74.7647 18.7773ZM52.4965 71.4535L43.7103 62.6687C38.4845 57.4415 38.4845 48.9379 43.7103 43.7107C48.9375 38.4849 57.4411 38.4849 62.6683 43.7107L71.4531 52.4954L71.4531 64.5697L64.5693 71.4535L52.4965 71.4535ZM12.6574 74.7651L18.7784 74.7651L25.5312 81.5178L17.811 89.2394L7.99698 79.4254L12.6574 74.7651ZM165.173 175.663L165.173 178.9L159.07 185.003L143.852 169.785L147.712 165.924L151.572 162.063L165.173 175.663ZM185.003 159.07L178.899 165.172L175.663 165.172L162.063 151.572L169.785 143.852L185.003 159.07ZM165.785 139.853L158.065 147.574L127.567 117.076L117.076 127.568L147.574 158.066L143.713 161.925L139.854 165.786L67.074 93.006L63.0747 97.0038L67.8205 101.75L30.3226 101.75L21.8102 93.2372L29.5304 85.517L34.846 90.8312L57.5898 90.8312L68.679 79.7435L66.0432 77.1078L66.912 77.1078L77.1089 66.9109L77.1089 66.0421L79.7431 68.6779L90.8323 57.5887L90.8323 34.8449L85.5167 29.5293C88.3762 26.6712 90.3802 24.6672 93.2383 21.8092L101.751 30.3215L101.751 67.8194L97.0049 63.0736L93.0056 67.0729L165.785 139.853Z" fill="#349E89" stroke="white" stroke-width="3" mask="url(#path-1-inside-1)"/>
</svg>
