<svg width="28" height="28" viewBox="0 0 28 28" fill="none" xmlns="http://www.w3.org/2000/svg">
<path d="M4.15625 9.625H23.8438V23.8438C23.8438 25.6559 22.3747 27.125 20.5625 27.125H7.4375C5.62532 27.125 4.15625 25.6559 4.15625 23.8438V9.625ZM10.7188 21.6562V14H8.53125V21.6562H10.7188ZM15.0938 21.6562V14H12.9062V21.6562H15.0938ZM19.4688 21.6562V14H17.2812V21.6562H19.4688ZM26.0312 5.25C26.6353 5.25 27.125 5.73969 27.125 6.34375C27.125 6.94781 26.6353 7.4375 26.0312 7.4375H1.96875C1.36469 7.4375 0.875 6.94781 0.875 6.34375C0.875 5.73969 1.36469 5.25 1.96875 5.25H8.53125V1.96875C8.53125 1.36469 9.02094 0.875 9.625 0.875H18.375C18.9791 0.875 19.4688 1.36469 19.4688 1.96875V5.25H26.0312ZM10.7188 3.0625V5.25H17.2812V3.0625H10.7188Z" fill="white"/>
</svg>
