<svg width="22" height="24" viewBox="0 0 22 24" fill="none" xmlns="http://www.w3.org/2000/svg">
<path d="M2.06042 12.0227C2.06042 15.106 3.59229 17.8315 5.9364 19.4797C6.34949 19.7703 6.37146 20.3736 5.97467 20.686L5.9635 20.6948C5.70441 20.8987 5.34113 20.9123 5.07123 20.7228C2.33472 18.8009 0.545959 15.6205 0.545959 12.0227C0.545959 6.18695 5.37646 1.44946 11.2005 1.39966V2.91449C6.21234 2.96393 2.06042 7.02301 2.06042 12.0227Z" fill="white"/>
<path d="M11.4787 0.0449774L14.2619 1.94872C14.411 2.05071 14.411 2.27062 14.2619 2.37261L11.4787 4.27636C11.3082 4.393 11.077 4.27087 11.077 4.06451V0.257014C11.077 0.0504706 11.3082 -0.0714776 11.4787 0.0449774Z" fill="white"/>
<path d="M20.4858 11.9769C20.4858 8.89355 18.9537 6.16802 16.6096 4.51989C16.1965 4.2293 16.1746 3.62597 16.5714 3.31359L16.5825 3.3048C16.8416 3.10082 17.2049 3.08727 17.4748 3.27679C20.2115 5.19866 22.0001 8.37902 22.0001 11.9769C22.0001 17.8126 17.1778 22.5501 11.3536 22.5999V21.0851C16.3417 21.0356 20.4858 16.9767 20.4858 11.9769Z" fill="white"/>
<path d="M11.0677 23.9544L8.28445 22.0507C8.13541 21.9487 8.13541 21.7288 8.28445 21.6268L11.0677 19.723C11.2379 19.6064 11.4694 19.7285 11.4694 19.9349V23.7424C11.4694 23.9489 11.2379 24.0711 11.0677 23.9544Z" fill="white"/>
<path d="M15.9973 10.8201L11.4383 14.6009L10.289 15.5541C10.0182 15.7784 9.67539 15.9002 9.32676 15.9002C9.26872 15.9002 9.21067 15.8969 9.15208 15.8901C8.7454 15.8423 8.37113 15.6266 8.12559 15.2987L6.35276 12.9355C5.95249 12.4018 6.06071 11.6441 6.59465 11.2431C7.12895 10.8428 7.88664 10.951 8.28709 11.485L9.48386 13.0807L9.49357 13.0728L14.4543 8.95883C14.9682 8.53293 15.7303 8.60397 16.1564 9.11795C16.5825 9.63193 16.5113 10.394 15.9973 10.8201Z" fill="white"/>
<path d="M15.9972 10.8201L11.4382 14.6009C10.6926 14.2286 10.0369 13.7141 9.49347 13.0728L14.4542 8.95883C14.9681 8.53293 15.7302 8.60397 16.1563 9.11795C16.5824 9.63193 16.5112 10.394 15.9972 10.8201Z" fill="white"/>
</svg>
