<svg width="100" height="99" viewBox="0 0 100 99" fill="none" xmlns="http://www.w3.org/2000/svg">
<path opacity="0.35" d="M39.8148 91.5563C61.8039 91.5563 79.6296 73.7307 79.6296 51.7416C79.6296 29.7524 61.8039 11.9268 39.8148 11.9268C17.8257 11.9268 0 29.7524 0 51.7416C0 73.7307 17.8257 91.5563 39.8148 91.5563Z" fill="#5CB09F"/>
<path d="M49.0743 17.4828H11.1113V11.4138C11.1113 6.58371 15.0271 2.66797 19.8572 2.66797H49.0743V17.4828Z" fill="#C6E3DD"/>
<path d="M11.713 15.6312V16.8812H12.963H47.2222H48.4722V15.6312V4.52011V3.27011H47.2222H19.857C15.3652 3.27011 11.713 6.92234 11.713 11.4141V15.6312ZM49.0741 18.0849H11.1111C10.7788 18.0849 10.5093 17.8154 10.5093 17.4831V11.4141C10.5093 6.26139 14.7043 2.06641 19.857 2.06641H49.0741C49.4064 2.06641 49.6759 2.33593 49.6759 2.66826V17.4831C49.6759 17.8154 49.4064 18.0849 49.0741 18.0849Z" fill="#5CB09F" stroke="white" stroke-width="2.5"/>
<path d="M19.8584 2.67677C24.7931 2.88556 27.7778 6.84528 27.7778 11.9272V84.7128C27.7778 91.561 32.0408 97.1124 38.8889 97.1124H83.3334L90.7408 91.5827V13.1522C90.7408 7.36195 86.0468 2.66797 80.2565 2.66797H20.3704L19.8584 2.67677Z" fill="white"/>
<path d="M19.8399 1.57554L19.84 1.57554L20.3448 1.56641H80.2565C86.6446 1.56641 91.8426 6.76441 91.8426 13.1525V91.583C91.8426 91.9308 91.6782 92.2582 91.4002 92.4656L91.4 92.4658L83.9926 97.9949L83.9923 97.9951C83.8012 98.1379 83.5707 98.2145 83.3333 98.2145H38.8889C31.8568 98.2145 26.6759 92.6257 26.6759 84.7131V11.9275C26.6759 9.62323 26.0345 7.63123 24.83 6.18097C23.6175 4.72107 21.8786 3.86564 19.812 3.77819C19.2174 3.75287 18.7502 3.2599 18.7569 2.66385C18.7645 2.06854 19.2442 1.58629 19.8399 1.57554ZM27.2644 3.77011H25.3553L26.7539 5.06956C28.5026 6.69434 28.8796 9.02064 28.8796 11.9275V84.7131C28.8796 87.9697 29.8791 90.7917 31.6514 92.8106C33.4299 94.8365 35.9515 96.0108 38.8889 96.0108H82.7185H82.9676L83.1671 95.8618L89.3375 91.2558L89.6389 91.0308V90.6548V13.1525C89.6389 7.97858 85.4304 3.77011 80.2565 3.77011H27.2644Z" fill="#5CB09F" stroke="white" stroke-width="1.5"/>
<path d="M38.8892 97.1124H89.3003C94.1869 97.1124 98.1485 93.1508 98.1485 88.2642V84.1494H48.1485V86.9272C48.1485 92.3249 43.9499 96.7415 38.6406 97.0901L38.8892 97.1124Z" fill="#C6E3DD"/>
<path d="M38.5447 98.1882L38.5448 98.1882L38.7925 98.2099C38.7927 98.2099 38.793 98.2099 38.7932 98.2099C38.8297 98.2131 38.8617 98.2145 38.8891 98.2145H89.3007C94.7865 98.2145 99.2502 93.7508 99.2502 88.265V84.1497C99.2502 83.5412 98.7568 83.0479 98.1484 83.0479H48.1484C47.5399 83.0479 47.0465 83.5412 47.0465 84.1497V86.9275C47.0465 91.6982 43.3246 95.6786 38.5684 95.9911C37.9932 96.0293 37.5452 96.5032 37.5386 97.0789L38.5447 98.1882ZM38.5447 98.1882C37.9711 98.1381 37.5328 97.655 37.5386 97.0792L38.5447 98.1882ZM46.0963 94.7414L44.8774 96.0108H46.6373H89.3002C93.5718 96.0108 97.0461 92.5366 97.0461 88.265V86.0016V85.2516H96.2961H50.0002H49.2502V86.0016V86.9275C49.2502 89.9408 48.0532 92.7032 46.0963 94.7414Z" fill="#5CB09F" stroke="white" stroke-width="1.5"/>
<path d="M13.7396 68.3468C13.3986 68.3468 13.0572 68.2165 12.7968 67.9561L9.02579 64.1852C8.50507 63.6645 8.50507 62.8204 9.02579 62.2997C9.54651 61.779 10.3906 61.779 10.9113 62.2997L14.6824 66.0707C15.2031 66.5914 15.2031 67.4354 14.6824 67.9561C14.422 68.2168 14.081 68.3468 13.7396 68.3468Z" fill="white"/>
<path d="M9.96856 68.3468C9.62752 68.3468 9.28615 68.2165 9.02579 67.9561C8.50507 67.4354 8.50507 66.5914 9.02579 66.0707L12.7968 62.2997C13.3176 61.779 14.1617 61.779 14.6824 62.2997C15.2031 62.8204 15.2031 63.6645 14.6824 64.1852L10.9113 67.9561C10.651 68.2168 10.3096 68.3468 9.96856 68.3468Z" fill="white"/>
<path d="M20.4363 52.1519C21.4591 52.1519 22.2882 51.3228 22.2882 50.3001C22.2882 49.2773 21.4591 48.4482 20.4363 48.4482C19.4136 48.4482 18.5845 49.2773 18.5845 50.3001C18.5845 51.3228 19.4136 52.1519 20.4363 52.1519Z" fill="white"/>
<path d="M13.5481 40.8062C14.5709 40.8062 15.4 39.9771 15.4 38.9544C15.4 37.9316 14.5709 37.1025 13.5481 37.1025C12.5254 37.1025 11.6963 37.9316 11.6963 38.9544C11.6963 39.9771 12.5254 40.8062 13.5481 40.8062Z" fill="white"/>
<path d="M71.182 32.4469H48.9598C48.3513 32.4469 47.8579 31.9535 47.8579 31.345C47.8579 30.7365 48.3513 30.2432 48.9598 30.2432H71.182C71.7904 30.2432 72.2838 30.7365 72.2838 31.345C72.2838 31.9535 71.7904 32.4469 71.182 32.4469Z" fill="#5CB09F" stroke="white" stroke-width="1.5"/>
<path d="M71.182 43.8092H48.9598C48.3513 43.8092 47.8579 43.3158 47.8579 42.7073C47.8579 42.0988 48.3513 41.6055 48.9598 41.6055H71.182C71.7904 41.6055 72.2838 42.0988 72.2838 42.7073C72.2838 43.3158 71.7904 43.8092 71.182 43.8092Z" fill="#5CB09F" stroke="white" stroke-width="1.5"/>
<path d="M76.7374 38.0025H43.4041C42.7956 38.0025 42.3022 37.5091 42.3022 36.9007C42.3022 36.2922 42.7956 35.7988 43.4041 35.7988H76.7374C77.3459 35.7988 77.8393 36.2922 77.8393 36.9007C77.8393 37.5092 77.3459 38.0025 76.7374 38.0025Z" fill="#5CB09F" stroke="white" stroke-width="1.5"/>
<path d="M76.7374 49.3648H43.4041C42.7956 49.3648 42.3022 48.8715 42.3022 48.263C42.3022 47.6545 42.7956 47.1611 43.4041 47.1611H76.7374C77.3459 47.1611 77.8393 47.6545 77.8393 48.263C77.8393 48.8715 77.3459 49.3648 76.7374 49.3648Z" fill="#5CB09F" stroke="white" stroke-width="1.5"/>
</svg>
