<svg width="76" height="76" viewBox="0 0 76 76" fill="none" xmlns="http://www.w3.org/2000/svg">
<rect x="18.4722" y="8.97217" width="37.4722" height="4.75" fill="#349E89"/>
<rect x="27.4444" y="4.22217" width="19.5278" height="2.63889" fill="#349E89"/>
<ellipse cx="66.7639" cy="57.5278" rx="3.95833" ry="4.75" fill="#349E89"/>
<ellipse cx="7.65278" cy="57.5278" rx="3.95833" ry="4.75" fill="#349E89"/>
<path d="M73.625 72.4375H68.875V64.0077C72.2401 63.3457 74.8125 59.9242 74.8125 55.8125C74.8125 51.2288 71.6166 47.5 67.6875 47.5C63.7584 47.5 60.5625 51.2288 60.5625 55.8125C60.5625 59.9242 63.1349 63.3457 66.5 64.0077V67.8434L64.7841 66.6989C64.5219 66.5241 64.201 66.4606 63.892 66.5224C63.583 66.5842 63.3112 66.7663 63.1364 67.0284C62.9616 67.2906 62.8981 67.6115 62.9599 67.9205C63.0217 68.2295 63.2037 68.5013 63.4659 68.6761L66.5 70.6978V72.4375H59.375V7.125C59.375 6.81006 59.2499 6.50801 59.0272 6.28531C58.8045 6.06261 58.5024 5.9375 58.1875 5.9375H49.875V2.375C49.875 2.06006 49.7499 1.75801 49.5272 1.53531C49.3045 1.31261 49.0024 1.1875 48.6875 1.1875H27.3125C26.9976 1.1875 26.6955 1.31261 26.4728 1.53531C26.2501 1.75801 26.125 2.06006 26.125 2.375V5.9375H17.8125C17.4976 5.9375 17.1955 6.06261 16.9728 6.28531C16.7501 6.50801 16.625 6.81006 16.625 7.125V72.4375H9.5V64.0077C12.8651 63.3457 15.4375 59.9242 15.4375 55.8125C15.4375 51.2288 12.2416 47.5 8.3125 47.5C4.38336 47.5 1.1875 51.2288 1.1875 55.8125C1.1875 59.9242 3.75992 63.3457 7.125 64.0077V67.8434L5.40906 66.6989C5.27924 66.6124 5.13364 66.5522 4.98058 66.5219C4.82751 66.4917 4.66999 66.4918 4.51699 66.5224C4.36399 66.553 4.21851 66.6135 4.08887 66.7003C3.95923 66.7871 3.84796 66.8986 3.76141 67.0284C3.67486 67.1583 3.61473 67.3039 3.58445 67.4569C3.55417 67.61 3.55433 67.7675 3.58493 67.9205C3.61553 68.0735 3.67597 68.219 3.76279 68.3486C3.84961 68.4783 3.96111 68.5895 4.09094 68.6761L7.125 70.6978V72.4375H2.375C2.06006 72.4375 1.75801 72.5626 1.53531 72.7853C1.31261 73.008 1.1875 73.3101 1.1875 73.625C1.1875 73.9399 1.31261 74.242 1.53531 74.4647C1.75801 74.6874 2.06006 74.8125 2.375 74.8125H73.625C73.9399 74.8125 74.242 74.6874 74.4647 74.4647C74.6874 74.242 74.8125 73.9399 74.8125 73.625C74.8125 73.3101 74.6874 73.008 74.4647 72.7853C74.242 72.5626 73.9399 72.4375 73.625 72.4375ZM8.3125 54.625C7.99756 54.625 7.69551 54.7501 7.47281 54.9728C7.25011 55.1955 7.125 55.4976 7.125 55.8125V61.5615C5.07805 60.9009 3.5625 58.5734 3.5625 55.8125C3.5625 52.538 5.69258 49.875 8.3125 49.875C10.9324 49.875 13.0625 52.538 13.0625 55.8125C13.0625 58.5734 11.547 60.9009 9.5 61.5615V55.8125C9.5 55.4976 9.37489 55.1955 9.15219 54.9728C8.92949 54.7501 8.62744 54.625 8.3125 54.625ZM28.5 3.5625H47.5V5.9375H28.5V3.5625ZM36.8125 72.4375H35.625V62.9375H36.8125V72.4375ZM40.375 72.4375H39.1875V62.9375H40.375V72.4375ZM57 72.4375H42.75V61.75C42.75 61.4351 42.6249 61.133 42.4022 60.9103C42.1795 60.6876 41.8774 60.5625 41.5625 60.5625H34.4375C34.1226 60.5625 33.8205 60.6876 33.5978 60.9103C33.3751 61.133 33.25 61.4351 33.25 61.75V72.4375H19V15.4375H57V72.4375ZM57 13.0625H19V8.3125H57V13.0625ZM67.6875 54.625C67.3726 54.625 67.0705 54.7501 66.8478 54.9728C66.6251 55.1955 66.5 55.4976 66.5 55.8125V61.5615C64.453 60.9009 62.9375 58.5734 62.9375 55.8125C62.9375 52.538 65.0676 49.875 67.6875 49.875C70.3074 49.875 72.4375 52.538 72.4375 55.8125C72.4375 58.5734 70.922 60.9009 68.875 61.5615V55.8125C68.875 55.4976 68.7499 55.1955 68.5272 54.9728C68.3045 54.7501 68.0024 54.625 67.6875 54.625Z" fill="#349E89"/>
<path d="M41.5625 48.6875H34.4375C34.1226 48.6875 33.8205 48.8126 33.5978 49.0353C33.3751 49.258 33.25 49.5601 33.25 49.875V57C33.25 57.3149 33.3751 57.617 33.5978 57.8397C33.8205 58.0624 34.1226 58.1875 34.4375 58.1875H41.5625C41.8774 58.1875 42.1795 58.0624 42.4022 57.8397C42.6249 57.617 42.75 57.3149 42.75 57V49.875C42.75 49.5601 42.6249 49.258 42.4022 49.0353C42.1795 48.8126 41.8774 48.6875 41.5625 48.6875ZM40.375 55.8125H35.625V51.0625H40.375V55.8125Z" fill="#349E89"/>
<path d="M29.6875 48.6875H22.5625C22.2476 48.6875 21.9455 48.8126 21.7228 49.0353C21.5001 49.258 21.375 49.5601 21.375 49.875V57C21.375 57.3149 21.5001 57.617 21.7228 57.8397C21.9455 58.0624 22.2476 58.1875 22.5625 58.1875H29.6875C30.0024 58.1875 30.3045 58.0624 30.5272 57.8397C30.7499 57.617 30.875 57.3149 30.875 57V49.875C30.875 49.5601 30.7499 49.258 30.5272 49.0353C30.3045 48.8126 30.0024 48.6875 29.6875 48.6875ZM28.5 55.8125H23.75V51.0625H28.5V55.8125Z" fill="#349E89"/>
<path d="M53.4375 48.6875H46.3125C45.9976 48.6875 45.6955 48.8126 45.4728 49.0353C45.2501 49.258 45.125 49.5601 45.125 49.875V57C45.125 57.3149 45.2501 57.617 45.4728 57.8397C45.6955 58.0624 45.9976 58.1875 46.3125 58.1875H53.4375C53.7524 58.1875 54.0545 58.0624 54.2772 57.8397C54.4999 57.617 54.625 57.3149 54.625 57V49.875C54.625 49.5601 54.4999 49.258 54.2772 49.0353C54.0545 48.8126 53.7524 48.6875 53.4375 48.6875ZM52.25 55.8125H47.5V51.0625H52.25V55.8125Z" fill="#349E89"/>
<path d="M29.6875 60.5625H22.5625C22.2476 60.5625 21.9455 60.6876 21.7228 60.9103C21.5001 61.133 21.375 61.4351 21.375 61.75V68.875C21.375 69.1899 21.5001 69.492 21.7228 69.7147C21.9455 69.9374 22.2476 70.0625 22.5625 70.0625H29.6875C30.0024 70.0625 30.3045 69.9374 30.5272 69.7147C30.7499 69.492 30.875 69.1899 30.875 68.875V61.75C30.875 61.4351 30.7499 61.133 30.5272 60.9103C30.3045 60.6876 30.0024 60.5625 29.6875 60.5625ZM28.5 67.6875H23.75V62.9375H28.5V67.6875Z" fill="#349E89"/>
<path d="M53.4375 60.5625H46.3125C45.9976 60.5625 45.6955 60.6876 45.4728 60.9103C45.2501 61.133 45.125 61.4351 45.125 61.75V68.875C45.125 69.1899 45.2501 69.492 45.4728 69.7147C45.6955 69.9374 45.9976 70.0625 46.3125 70.0625H53.4375C53.7524 70.0625 54.0545 69.9374 54.2772 69.7147C54.4999 69.492 54.625 69.1899 54.625 68.875V61.75C54.625 61.4351 54.4999 61.133 54.2772 60.9103C54.0545 60.6876 53.7524 60.5625 53.4375 60.5625ZM52.25 67.6875H47.5V62.9375H52.25V67.6875Z" fill="#349E89"/>
<path d="M41.5625 38H34.4375C34.1226 38 33.8205 38.1251 33.5978 38.3478C33.3751 38.5705 33.25 38.8726 33.25 39.1875V46.3125C33.25 46.6274 33.3751 46.9295 33.5978 47.1522C33.8205 47.3749 34.1226 47.5 34.4375 47.5H41.5625C41.8774 47.5 42.1795 47.3749 42.4022 47.1522C42.6249 46.9295 42.75 46.6274 42.75 46.3125V39.1875C42.75 38.8726 42.6249 38.5705 42.4022 38.3478C42.1795 38.1251 41.8774 38 41.5625 38ZM40.375 45.125H35.625V40.375H40.375V45.125Z" fill="#349E89"/>
<path d="M29.6875 38H22.5625C22.2476 38 21.9455 38.1251 21.7228 38.3478C21.5001 38.5705 21.375 38.8726 21.375 39.1875V46.3125C21.375 46.6274 21.5001 46.9295 21.7228 47.1522C21.9455 47.3749 22.2476 47.5 22.5625 47.5H29.6875C30.0024 47.5 30.3045 47.3749 30.5272 47.1522C30.7499 46.9295 30.875 46.6274 30.875 46.3125V39.1875C30.875 38.8726 30.7499 38.5705 30.5272 38.3478C30.3045 38.1251 30.0024 38 29.6875 38ZM28.5 45.125H23.75V40.375H28.5V45.125Z" fill="#349E89"/>
<path d="M53.4375 38H46.3125C45.9976 38 45.6955 38.1251 45.4728 38.3478C45.2501 38.5705 45.125 38.8726 45.125 39.1875V46.3125C45.125 46.6274 45.2501 46.9295 45.4728 47.1522C45.6955 47.3749 45.9976 47.5 46.3125 47.5H53.4375C53.7524 47.5 54.0545 47.3749 54.2772 47.1522C54.4999 46.9295 54.625 46.6274 54.625 46.3125V39.1875C54.625 38.8726 54.4999 38.5705 54.2772 38.3478C54.0545 38.1251 53.7524 38 53.4375 38ZM52.25 45.125H47.5V40.375H52.25V45.125Z" fill="#349E89"/>
<path d="M41.5625 27.3125H34.4375C34.1226 27.3125 33.8205 27.4376 33.5978 27.6603C33.3751 27.883 33.25 28.1851 33.25 28.5V35.625C33.25 35.9399 33.3751 36.242 33.5978 36.4647C33.8205 36.6874 34.1226 36.8125 34.4375 36.8125H41.5625C41.8774 36.8125 42.1795 36.6874 42.4022 36.4647C42.6249 36.242 42.75 35.9399 42.75 35.625V28.5C42.75 28.1851 42.6249 27.883 42.4022 27.6603C42.1795 27.4376 41.8774 27.3125 41.5625 27.3125ZM40.375 34.4375H35.625V29.6875H40.375V34.4375Z" fill="#349E89"/>
<path d="M29.6875 27.3125H22.5625C22.2476 27.3125 21.9455 27.4376 21.7228 27.6603C21.5001 27.883 21.375 28.1851 21.375 28.5V35.625C21.375 35.9399 21.5001 36.242 21.7228 36.4647C21.9455 36.6874 22.2476 36.8125 22.5625 36.8125H29.6875C30.0024 36.8125 30.3045 36.6874 30.5272 36.4647C30.7499 36.242 30.875 35.9399 30.875 35.625V28.5C30.875 28.1851 30.7499 27.883 30.5272 27.6603C30.3045 27.4376 30.0024 27.3125 29.6875 27.3125ZM28.5 34.4375H23.75V29.6875H28.5V34.4375Z" fill="#349E89"/>
<path d="M53.4375 27.3125H46.3125C45.9976 27.3125 45.6955 27.4376 45.4728 27.6603C45.2501 27.883 45.125 28.1851 45.125 28.5V35.625C45.125 35.9399 45.2501 36.242 45.4728 36.4647C45.6955 36.6874 45.9976 36.8125 46.3125 36.8125H53.4375C53.7524 36.8125 54.0545 36.6874 54.2772 36.4647C54.4999 36.242 54.625 35.9399 54.625 35.625V28.5C54.625 28.1851 54.4999 27.883 54.2772 27.6603C54.0545 27.4376 53.7524 27.3125 53.4375 27.3125ZM52.25 34.4375H47.5V29.6875H52.25V34.4375Z" fill="#349E89"/>
<path d="M41.5625 16.625H34.4375C34.1226 16.625 33.8205 16.7501 33.5978 16.9728C33.3751 17.1955 33.25 17.4976 33.25 17.8125V24.9375C33.25 25.2524 33.3751 25.5545 33.5978 25.7772C33.8205 25.9999 34.1226 26.125 34.4375 26.125H41.5625C41.8774 26.125 42.1795 25.9999 42.4022 25.7772C42.6249 25.5545 42.75 25.2524 42.75 24.9375V17.8125C42.75 17.4976 42.6249 17.1955 42.4022 16.9728C42.1795 16.7501 41.8774 16.625 41.5625 16.625ZM40.375 23.75H35.625V19H40.375V23.75Z" fill="#349E89"/>
<path d="M29.6875 16.625H22.5625C22.2476 16.625 21.9455 16.7501 21.7228 16.9728C21.5001 17.1955 21.375 17.4976 21.375 17.8125V24.9375C21.375 25.2524 21.5001 25.5545 21.7228 25.7772C21.9455 25.9999 22.2476 26.125 22.5625 26.125H29.6875C30.0024 26.125 30.3045 25.9999 30.5272 25.7772C30.7499 25.5545 30.875 25.2524 30.875 24.9375V17.8125C30.875 17.4976 30.7499 17.1955 30.5272 16.9728C30.3045 16.7501 30.0024 16.625 29.6875 16.625ZM28.5 23.75H23.75V19H28.5V23.75Z" fill="#349E89"/>
<path d="M53.4375 16.625H46.3125C45.9976 16.625 45.6955 16.7501 45.4728 16.9728C45.2501 17.1955 45.125 17.4976 45.125 17.8125V24.9375C45.125 25.2524 45.2501 25.5545 45.4728 25.7772C45.6955 25.9999 45.9976 26.125 46.3125 26.125H53.4375C53.7524 26.125 54.0545 25.9999 54.2772 25.7772C54.4999 25.5545 54.625 25.2524 54.625 24.9375V17.8125C54.625 17.4976 54.4999 17.1955 54.2772 16.9728C54.0545 16.7501 53.7524 16.625 53.4375 16.625ZM52.25 23.75H47.5V19H52.25V23.75Z" fill="#349E89"/>
</svg>
