<svg width="28" height="18" viewBox="0 0 28 18" fill="none" xmlns="http://www.w3.org/2000/svg">
<path d="M14.0069 1.0014C9.34569 0.922765 4.52493 4.18016 1.49417 7.51619C1.17605 7.86937 1 8.32786 1 8.80319C1 9.27852 1.17605 9.73701 1.49417 10.0902C4.45902 13.3557 9.2659 16.6882 14.0069 16.6085C18.7479 16.6882 23.5559 13.3557 26.5231 10.0902C26.8412 9.73701 27.0172 9.27852 27.0172 8.80319C27.0172 8.32786 26.8412 7.86937 26.5231 7.51619C23.4888 4.18016 18.6681 0.922765 14.0069 1.0014Z" stroke="#2D8976" stroke-width="1.2" stroke-linecap="round" stroke-linejoin="round"/>
<path d="M18.3434 8.80543C18.3432 9.66301 18.0887 10.5013 17.6121 11.2142C17.1354 11.9272 16.4581 12.4828 15.6658 12.8108C14.8734 13.1388 14.0016 13.2245 13.1605 13.0571C12.3194 12.8896 11.5469 12.4765 10.9406 11.8701C10.3342 11.2636 9.92136 10.4909 9.75414 9.64981C9.58691 8.80869 9.67285 7.93688 10.0011 7.1446C10.3293 6.35232 10.8851 5.67515 11.5982 5.19873C12.3113 4.72231 13.1496 4.46802 14.0072 4.46802C14.5767 4.46787 15.1408 4.57996 15.667 4.7979C16.1933 5.01583 16.6714 5.33534 17.0741 5.73815C17.4768 6.14096 17.7962 6.61918 18.014 7.14548C18.2318 7.67178 18.3437 8.23585 18.3434 8.80543Z" stroke="#2D8976" stroke-width="1.2" stroke-linecap="round" stroke-linejoin="round"/>
</svg>
