<svg width="22" height="20" viewBox="0 0 22 20" fill="none" xmlns="http://www.w3.org/2000/svg">
<path d="M10.9253 4.34799L16.7531 9.27947V18.9293H5.09753V9.27947L10.9253 4.34799Z" stroke="#2D8976" stroke-width="1.08276"/>
<path d="M11.2762 1.24733C11.074 1.07528 10.7768 1.07528 10.5746 1.24733L2.21788 8.35691C1.67646 8.81754 1.63615 9.63953 2.1299 10.1509C2.57731 10.6143 3.30616 10.6548 3.80215 10.2438L10.9254 4.34173L18.0486 10.2438C18.5446 10.6548 19.2735 10.6143 19.7209 10.1509C20.2146 9.63953 20.1743 8.81754 19.6329 8.35691L11.2762 1.24733Z" stroke="#2D8976" stroke-width="1.08276" stroke-linejoin="round"/>
<path d="M1 19.2585H20.8506" stroke="#2D8976" stroke-width="1.08276" stroke-linecap="round"/>
<path d="M12.2948 16.7637V18.9292H9.55603V16.7637C9.55603 16.0074 10.1691 15.3943 10.9254 15.3943C11.6817 15.3943 12.2948 16.0074 12.2948 16.7637Z" stroke="#2D8976" stroke-width="1.08276"/>
<ellipse cx="8.37759" cy="11.5547" rx="1.27383" ry="1.31933" fill="#2D8976"/>
<path d="M16.7531 2.59229V5.90288L14.6512 4.11035V2.59229C14.6512 2.01189 15.1218 1.54138 15.7022 1.54138C16.2826 1.54138 16.7531 2.01189 16.7531 2.59229Z" stroke="#2D8976" stroke-width="1.08276"/>
</svg>
