<svg width="24" height="24" viewBox="0 0 24 24" fill="none" xmlns="http://www.w3.org/2000/svg">
<g clip-path="url(#clip0)">
<path d="M23.25 8.99989V4.64988C23.2501 4.35004 23.1602 4.05706 22.9922 3.80876C22.8241 3.56045 22.5854 3.36823 22.307 3.25688L16.307 0.856884C15.9494 0.713884 15.5506 0.713884 15.193 0.856884L8.80701 3.41188C8.44944 3.55489 8.05058 3.55489 7.69301 3.41188L1.77901 1.04588C1.6649 1.00015 1.5413 0.98317 1.41909 0.996432C1.29687 1.00969 1.17979 1.05279 1.07815 1.12194C0.97651 1.19108 0.893422 1.28415 0.836202 1.39295C0.778981 1.50176 0.749382 1.62296 0.75001 1.74588V16.1189C0.74996 16.4187 0.839775 16.7117 1.00786 16.96C1.17595 17.2083 1.4146 17.4005 1.69301 17.5119L7.69301 19.9119C8.05058 20.0549 8.44944 20.0549 8.80701 19.9119L11.688 18.7589" stroke="black" stroke-width="1.5" stroke-linecap="round" stroke-linejoin="round"/>
<path d="M8.25 3.51904V20.019" stroke="black" stroke-width="1.5" stroke-linecap="round" stroke-linejoin="round"/>
<path d="M15.75 0.75V8.25" stroke="black" stroke-width="1.5" stroke-linecap="round" stroke-linejoin="round"/>
<path d="M18.75 15.4489C18.8495 15.4489 18.9448 15.4884 19.0152 15.5587C19.0855 15.629 19.125 15.7244 19.125 15.8239" stroke="black" stroke-width="1.5" stroke-linecap="round" stroke-linejoin="round"/>
<path d="M18.375 15.8239C18.375 15.7244 18.4145 15.629 18.4848 15.5587C18.5552 15.4884 18.6505 15.4489 18.75 15.4489" stroke="black" stroke-width="1.5" stroke-linecap="round" stroke-linejoin="round"/>
<path d="M18.75 16.1998C18.6505 16.1998 18.5552 16.1603 18.4848 16.09C18.4145 16.0197 18.375 15.9243 18.375 15.8248" stroke="black" stroke-width="1.5" stroke-linecap="round" stroke-linejoin="round"/>
<path d="M19.125 15.8239C19.125 15.9233 19.0855 16.0187 19.0152 16.089C18.9448 16.1593 18.8495 16.1989 18.75 16.1989" stroke="black" stroke-width="1.5" stroke-linecap="round" stroke-linejoin="round"/>
<path d="M18.75 11.3239C19.9435 11.3239 21.0881 11.798 21.932 12.6419C22.7759 13.4858 23.25 14.6304 23.25 15.8239C23.25 17.7449 20.562 21.3999 19.341 22.9619C19.2709 23.0516 19.1812 23.1242 19.0788 23.1742C18.9764 23.2241 18.8639 23.2501 18.75 23.2501C18.6361 23.2501 18.5236 23.2241 18.4212 23.1742C18.3188 23.1242 18.2291 23.0516 18.159 22.9619C16.938 21.4009 14.25 17.7449 14.25 15.8239C14.25 14.6304 14.7241 13.4858 15.568 12.6419C16.4119 11.798 17.5565 11.3239 18.75 11.3239Z" stroke="black" stroke-width="1.5" stroke-linecap="round" stroke-linejoin="round"/>
</g>
<defs>
<clipPath id="clip0">
<rect width="24" height="24" fill="white"/>
</clipPath>
</defs>
</svg>
