<svg width="25" height="24" viewBox="0 0 25 24" fill="none" xmlns="http://www.w3.org/2000/svg">
<path d="M2.21021 23.25C2.21012 21.1884 2.86322 19.1798 4.07576 17.5126C5.2883 15.8453 6.99792 14.6051 8.95921 13.97L11.9592 16.5L14.9592 13.97C16.9209 14.6047 18.6309 15.8448 19.8438 17.5121C21.0568 19.1794 21.7102 21.1882 21.7102 23.25" stroke="black" stroke-width="1.2" stroke-linecap="round" stroke-linejoin="round"/>
<path d="M17.6174 15.306C16.8061 14.7272 15.9106 14.2766 14.9624 13.97L11.9624 16.5L15.3624 20.575L17.6174 15.306Z" stroke="black" stroke-width="1.2" stroke-linecap="round" stroke-linejoin="round"/>
<path d="M11.9602 16.5L8.96015 13.97C8.0124 14.277 7.11733 14.7276 6.30615 15.306L8.56415 20.575L11.9602 16.5Z" stroke="black" stroke-width="1.2" stroke-linecap="round" stroke-linejoin="round"/>
<path d="M14.2102 23.2501L15.3562 20.5751" stroke="black" stroke-width="1.2" stroke-linecap="round" stroke-linejoin="round"/>
<path d="M8.56299 20.5751L9.70999 23.2501" stroke="black" stroke-width="1.2" stroke-linecap="round" stroke-linejoin="round"/>
<path d="M6.71021 6C6.71021 7.39239 7.26333 8.72774 8.24789 9.71231C9.23246 10.6969 10.5678 11.25 11.9602 11.25C13.3526 11.25 14.6879 10.6969 15.6725 9.71231C16.6571 8.72774 17.2102 7.39239 17.2102 6C17.2102 4.60761 16.6571 3.27226 15.6725 2.28769C14.6879 1.30312 13.3526 0.75 11.9602 0.75C10.5678 0.75 9.23246 1.30312 8.24789 2.28769C7.26333 3.27226 6.71021 4.60761 6.71021 6V6Z" stroke="black" stroke-width="1.2" stroke-linecap="round" stroke-linejoin="round"/>
<path d="M7.43628 3.33398C8.2491 4.17734 9.22365 4.84812 10.3017 5.30619C11.3797 5.76427 12.539 6.00024 13.7103 5.99998C14.8973 6.00059 16.0719 5.759 17.1623 5.28998" stroke="black" stroke-width="1.2" stroke-linecap="round" stroke-linejoin="round"/>
</svg>
