<svg width="81" height="44" viewBox="0 0 81 44" fill="none" xmlns="http://www.w3.org/2000/svg">
<path d="M65.1287 21.6856L77.749 5.33255H80.9486L80.0006 0L69.9874 5.21397H74.7272L62.166 21.6856L67.3801 28.6178H70.3428L65.1287 21.6856Z" fill="white"/>
<path d="M57.8212 21.4996L45.2005 37.8527H42.001L42.949 43.1851L52.9622 37.9711H48.2226L60.7837 21.4996L55.5696 14.5671H52.607L57.8212 21.4996Z" fill="white"/>
<path d="M61.5539 26.4174L63.3311 28.6179H66.2346L61.5539 22.4478L50.8887 36.0585" fill="white"/>
<path d="M61.3957 16.7679L59.6181 14.5671H56.7148L61.3957 20.7377L72.0606 7.12646" fill="white"/>
<path d="M3.39789 14.5589H9.54271L9.85553 24.0981L14.1077 14.5589L20.2371 14.5393L17.258 28.6432H13.5708L16.2599 16.8219L10.4109 28.6432H6.89936L6.21475 16.7242L3.7781 28.6432H0.40332L3.39789 14.5589Z" fill="white"/>
<path d="M24.567 14.5591H31.0825C33.6184 14.5591 34.5412 14.7151 35.1974 15.5735C35.5354 16.0028 35.9157 16.783 35.5922 18.3045C35.2645 19.8456 34.4992 20.509 33.7488 20.9186C32.7313 21.4843 31.8521 21.5818 31.4496 21.6404L31.4329 21.7183C34.1474 21.7963 34.0463 23.0056 33.8979 25.1711C33.8313 26.127 33.7028 27.6485 33.8232 28.6434H29.59C29.5383 27.7852 29.669 26.7123 29.7978 25.4638C29.9831 23.7667 30.0572 23.1423 28.3016 23.1423H26.663L25.4933 28.6434H21.5723L24.567 14.5591ZM27.2021 20.6064H28.6653C29.5235 20.6064 29.9527 20.6064 30.3092 20.4893C31.2255 20.2161 31.5879 19.3384 31.6832 18.8897C32.0524 17.1535 30.5309 17.1535 29.3993 17.1535H27.9363L27.2021 20.6064Z" fill="white"/>
<path d="M40.3426 14.5981H50.9159L50.3434 17.2901H43.6327L43.0104 20.2163H49.3313L48.7587 22.9083H42.4382L41.7996 25.9124H48.6663L48.0856 28.6432H37.3564L40.3426 14.5981Z" fill="white"/>
</svg>
