<?xml version="1.0" encoding="utf-8"?>
<!-- Generator: Adobe Illustrator 16.0.0, SVG Export Plug-In . SVG Version: 6.00 Build 0)  -->
<!DOCTYPE svg PUBLIC "-//W3C//DTD SVG 1.1//EN" "http://www.w3.org/Graphics/SVG/1.1/DTD/svg11.dtd">
<svg version="1.1" id="Layer_1" xmlns="http://www.w3.org/2000/svg" xmlns:xlink="http://www.w3.org/1999/xlink" x="0px" y="0px"
	 width="500px" height="500px" viewBox="0 0 500 500" enable-background="new 0 0 500 500" xml:space="preserve">
<g>
	<polygon fill="#339E89" points="402.029,250.362 479.932,149.417 499.683,149.417 493.831,116.5 432.021,148.685 461.279,148.685 
		383.741,250.362 415.927,293.153 434.215,293.153 	"/>
	<polygon fill="#252D3A" points="356.923,249.213 279.017,350.158 259.267,350.158 265.119,383.074 326.929,350.889 
		297.672,350.889 375.21,249.213 343.024,206.42 324.736,206.42 	"/>
	<polyline fill="#252D3A" points="379.964,279.57 390.934,293.153 408.857,293.153 379.964,255.066 314.129,339.083 	"/>
	<polyline fill="#339E89" points="378.988,220.005 368.015,206.42 350.094,206.42 378.988,244.51 444.821,160.49 	"/>
	<path fill="#252D3A" d="M20.975,206.371h37.931l1.931,58.884l26.248-58.884l37.836-0.121l-18.39,87.061H83.771l16.599-72.971
		l-36.105,72.971H42.589l-4.226-73.574l-15.041,73.574H2.49L20.975,206.371z"/>
	<path fill="#252D3A" d="M151.646,206.371h40.219c15.654,0,21.35,0.963,25.401,6.262c2.086,2.65,4.434,7.466,2.437,16.858
		c-2.023,9.513-6.747,13.608-11.379,16.136c-6.281,3.492-11.708,4.094-14.193,4.456l-0.103,0.481
		c16.756,0.481,16.132,7.946,15.216,21.313c-0.411,5.901-1.204,15.293-0.461,21.434h-26.131c-0.319-5.297,0.488-11.92,1.283-19.627
		c1.144-10.476,1.601-14.33-9.236-14.33h-10.115l-7.22,33.957H133.16L151.646,206.371z M167.912,243.7h9.032
		c5.298,0,7.947,0,10.148-0.723c5.656-1.686,7.893-7.104,8.481-9.874c2.279-10.717-7.113-10.717-14.098-10.717h-9.031L167.912,243.7
		z"/>
	<path fill="#252D3A" d="M249.027,206.612h65.267l-3.534,16.617h-41.424l-3.841,18.063h39.018l-3.535,16.617h-39.015l-3.942,18.544
		h42.387l-3.585,16.857h-66.229L249.027,206.612z"/>
</g>
</svg>
