<?xml version="1.0" encoding="utf-8"?>
<!-- Generator: Adobe Illustrator 16.0.0, SVG Export Plug-In . SVG Version: 6.00 Build 0)  -->
<!DOCTYPE svg PUBLIC "-//W3C//DTD SVG 1.1//EN" "http://www.w3.org/Graphics/SVG/1.1/DTD/svg11.dtd">
<svg version="1.1" id="Layer_1" xmlns="http://www.w3.org/2000/svg" xmlns:xlink="http://www.w3.org/1999/xlink" x="0px" y="0px"
	 width="500px" height="500px" viewBox="0 0 500 500" enable-background="new 0 0 500 500" xml:space="preserve">
<g>
	<polygon fill="#339E89" points="291.139,251.355 435.966,63.694 472.683,63.694 461.803,2.5 346.896,62.334 401.288,62.334 
		257.14,251.355 316.977,330.905 350.975,330.905 	"/>
	<polygon fill="#252D3A" points="207.284,249.219 62.454,436.882 25.739,436.882 36.617,498.074 151.525,438.24 97.134,438.24 
		241.28,249.219 181.446,169.666 147.448,169.666 	"/>
	<polyline fill="#252D3A" points="250.118,305.655 270.514,330.905 303.833,330.905 250.118,260.102 127.728,416.293 	"/>
	<polyline fill="#339E89" points="248.304,194.921 227.906,169.666 194.591,169.666 248.304,240.477 370.691,84.28 	"/>
</g>
</svg>
